# Blender3D v248 OBJ File: p0010.blend
# www.blender3d.org
mtllib p0010.mtl
v 1.000002 0.999999 0.005295
v 1.000002 -0.999999 0.005295
v -1.000002 -0.999999 0.005295
v -1.000002 0.999999 0.005295
v 1.000002 0.999999 4.002129
v 1.000002 -0.999999 4.002129
v -1.000002 -0.999999 4.002129
v -1.000002 0.999999 4.002129
vt 0.161309 0.602283
vt 0.161309 0.232923
vt 0.521309 0.232923
vt 0.521309 0.602283
vt 0.112480 0.226921
vt 0.472480 0.226921
vt 0.472480 0.586921
vt 0.112480 0.586921
vt 0.677458 0.802580
vt 0.871858 0.802580
vt 0.871858 0.996980
vt 0.677458 0.996980
vn 0.000000 1.000000 0.000000
vn -1.000000 0.000000 0.000000
vn 0.000000 -1.000000 0.000000
vn 1.000000 0.000000 0.000000
vn 0.000000 0.000000 1.000000
vn 0.000000 0.000000 -1.000000
g Cube_Cube_None_QuartoPieces.png
usemtl None_QuartoPieces.png
s off
f 5/1/1 1/2/1 4/3/1
f 5/1/1 4/3/1 8/4/1
f 3/1/2 7/2/2 8/3/2
f 3/1/2 8/3/2 4/4/2
f 2/1/3 6/2/3 7/3/3
f 2/1/3 7/3/3 3/4/3
f 1/1/4 5/2/4 6/3/4
f 1/1/4 6/3/4 2/4/4
f 5/5/5 8/6/5 7/7/5
f 5/5/5 7/7/5 6/8/5
f 1/9/6 2/10/6 3/11/6
f 1/9/6 3/11/6 4/12/6
