# Blender3D v248 OBJ File: p1001.blend
# www.blender3d.org
mtllib p1001.mtl
v 1.000002 0.999999 0.005295
v 1.000002 -0.999999 0.005295
v -1.000002 -0.999999 0.005295
v -1.000002 0.999999 0.005295
v 1.000002 0.999999 1.994713
v 1.000002 -0.999999 1.994713
v -1.000002 -0.999999 1.994713
v -1.000002 0.999999 1.994713
v 0.424264 -0.424261 2.003685
v 0.554328 -0.229605 2.003685
v 0.600000 0.000004 2.003685
v 0.554328 0.229625 2.003685
v 0.424264 0.424282 2.003685
v 0.229610 0.554328 2.003685
v 0.000000 0.600009 2.003685
v -0.229610 0.554328 2.003685
v -0.424264 0.424282 2.003685
v -0.554328 0.229625 2.003685
v -0.600000 0.000004 2.003685
v -0.554328 -0.229605 2.003685
v -0.424264 -0.424261 2.003685
v -0.229610 -0.554319 2.003685
v 0.000000 -0.600000 2.003685
v 0.229610 -0.554319 2.003685
v 0.424264 -0.424261 1.719162
v 0.554328 -0.229605 1.719162
v 0.600000 0.000004 1.719162
v 0.554327 0.229625 1.719162
v 0.424263 0.424282 1.719162
v 0.229609 0.554328 1.719162
v -0.000001 0.600009 1.719162
v -0.229611 0.554328 1.719162
v -0.424265 0.424282 1.719162
v -0.554328 0.229625 1.719162
v -0.600000 0.000004 1.719162
v -0.554327 -0.229605 1.719162
v -0.424263 -0.424261 1.719162
v -0.229608 -0.554319 1.719162
v 0.000002 -0.600000 1.719162
v 0.229612 -0.554319 1.719162
v 0.000000 0.000006 1.718651
vt 0.770059 0.699531
vt 0.836015 0.633575
vt 0.856234 0.663836
vt 0.863335 0.699531
vt 0.856234 0.735227
vt 0.836015 0.765489
vt 0.805754 0.785705
vt 0.770059 0.792807
vt 0.734364 0.785705
vt 0.704103 0.765489
vt 0.683884 0.735227
vt 0.676784 0.699531
vt 0.683884 0.663836
vt 0.704104 0.633575
vt 0.734365 0.613356
vt 0.770060 0.606255
vt 0.805754 0.613356
vt 0.193389 0.653599
vt 0.324255 0.729306
vt 0.291190 0.751399
vt 0.269096 0.784465
vt 0.261338 0.823469
vt 0.193389 0.993337
vt 0.363259 0.721547
vt 0.533129 0.653599
vt 0.402263 0.729306
vt 0.435329 0.751399
vt 0.457422 0.784465
vt 0.465181 0.823469
vt 0.533129 0.993337
vt 0.363259 0.925391
vt 0.324255 0.917631
vt 0.291190 0.895541
vt 0.269096 0.862475
vt 0.402263 0.917631
vt 0.435329 0.895541
vt 0.457422 0.862475
vt 0.235462 0.830133
vt 0.251490 0.871090
vt 0.193286 0.912065
vt 0.165836 0.845759
vt 0.236192 0.785996
vt 0.165836 0.773929
vt 0.253584 0.745428
vt 0.193212 0.707572
vt 0.284950 0.714617
vt 0.243738 0.656791
vt 0.325433 0.698242
vt 0.309671 0.629348
vt 0.368735 0.698750
vt 0.380821 0.629493
vt 0.408094 0.715972
vt 0.446039 0.657205
vt 0.437277 0.746990
vt 0.494997 0.707982
vt 0.451497 0.787320
vt 0.520039 0.773650
vt 0.448525 0.831319
vt 0.518318 0.843554
vt 0.433484 0.872686
vt 0.493116 0.908106
vt 0.403826 0.903659
vt 0.445454 0.959287
vt 0.364451 0.920165
vt 0.381104 0.988120
vt 0.321506 0.919814
vt 0.310138 0.989348
vt 0.281760 0.902591
vt 0.244022 0.962580
vt 0.124401 0.982696
vt 0.124401 0.622696
vt 0.484401 0.622696
vt 0.484401 0.982696
vt 0.677458 0.802580
vt 0.871858 0.802580
vt 0.871858 0.996980
vt 0.677458 0.996980
vn -0.000722 0.000483 1.000000
vn -0.000852 0.000169 1.000000
vn -0.000852 -0.000169 1.000000
vn -0.000722 -0.000483 1.000000
vn -0.000483 -0.000722 1.000000
vn -0.000169 -0.000852 1.000000
vn 0.000169 -0.000852 1.000000
vn 0.000483 -0.000722 1.000000
vn 0.000722 -0.000483 1.000000
vn 0.000852 -0.000169 1.000000
vn 0.000852 0.000169 1.000000
vn 0.000722 0.000483 1.000000
vn 0.000483 0.000722 1.000000
vn 0.000169 0.000852 1.000000
vn -0.000169 0.000852 1.000000
vn -0.000483 0.000722 1.000000
vn -0.006241 -0.009341 0.999937
vn -0.009341 -0.006242 0.999937
vn -0.014979 -0.002980 0.999883
vn -0.022425 0.000000 0.999749
vn -0.002980 -0.014978 0.999883
vn 0.000000 -0.022425 0.999749
vn 0.002980 -0.014978 0.999883
vn 0.006241 -0.009341 0.999937
vn 0.009341 -0.006242 0.999937
vn 0.014979 -0.002980 0.999883
vn 0.022425 0.000000 0.999749
vn 0.000000 0.022425 0.999749
vn -0.002980 0.014978 0.999883
vn -0.006241 0.009342 0.999937
vn -0.009341 0.006242 0.999937
vn -0.014979 0.002979 0.999883
vn 0.002980 0.014978 0.999883
vn 0.006241 0.009342 0.999937
vn 0.009341 0.006242 0.999937
vn 0.014979 0.002979 0.999883
vn -0.555552 0.831482 -0.000001
vn -0.555554 0.831480 -0.000003
vn -0.195126 0.980778 -0.000001
vn 0.195126 0.980778 0.000001
vn 0.555551 0.831482 0.000003
vn 0.555551 0.831483 0.000002
vn 0.831473 0.555565 0.000003
vn 0.831472 0.555566 0.000002
vn 0.980785 0.195091 0.000002
vn 0.980785 0.195094 0.000000
vn 0.980787 -0.195082 -0.000000
vn 0.980788 -0.195079 -0.000002
vn 0.831473 -0.555565 -0.000002
vn 0.831474 -0.555564 -0.000003
vn 0.555516 -0.831506 -0.000002
vn 0.555517 -0.831505 -0.000002
vn 0.195126 -0.980778 -0.000001
vn -0.195126 -0.980778 0.000001
vn -0.555516 -0.831506 0.000002
vn -0.555516 -0.831506 0.000001
vn -0.831473 -0.555565 0.000002
vn -0.831473 -0.555566 0.000001
vn -0.980787 -0.195082 0.000001
vn -0.980787 -0.195083 -0.000000
vn -0.980785 0.195091 0.000000
vn -0.980785 0.195090 -0.000001
vn -0.831473 0.555565 -0.000001
vn -0.831474 0.555564 -0.000001
vn 0.000000 1.000000 0.000000
vn -1.000000 0.000000 0.000000
vn 0.000000 -1.000000 0.000000
vn 1.000000 0.000000 0.000000
vn 0.000000 0.000000 -1.000000
g Cube_Cube_None_QuartoPieces.png
usemtl None_QuartoPieces.png
s off
f 41/1/1 25/2/1 26/3/1
f 41/1/2 26/3/2 27/4/2
f 41/1/3 27/4/3 28/5/3
f 41/1/4 28/5/4 29/6/4
f 41/1/5 29/6/5 30/7/5
f 41/1/6 30/7/6 31/8/6
f 41/1/7 31/8/7 32/9/7
f 41/1/8 32/9/8 33/10/8
f 41/1/9 33/10/9 34/11/9
f 41/1/10 34/11/10 35/12/10
f 41/1/11 35/12/11 36/13/11
f 41/1/12 36/13/12 37/14/12
f 41/1/13 37/14/13 38/15/13
f 41/1/14 38/15/14 39/16/14
f 41/1/15 39/16/15 40/17/15
f 41/1/16 40/17/16 25/2/16
f 7/18/17 22/19/17 21/20/17
f 7/18/18 21/20/18 20/21/18
f 7/18/19 20/21/19 19/22/19
f 7/18/20 19/22/20 8/23/20
f 7/18/21 23/24/21 22/19/21
f 6/25/22 23/24/22 7/18/22
f 6/25/23 24/26/23 23/24/23
f 6/25/24 9/27/24 24/26/24
f 6/25/25 10/28/25 9/27/25
f 6/25/26 11/29/26 10/28/26
f 5/30/27 11/29/27 6/25/27
f 5/30/28 8/23/28 15/31/28
f 8/23/29 16/32/29 15/31/29
f 8/23/30 17/33/30 16/32/30
f 8/23/31 18/34/31 17/33/31
f 8/23/32 19/22/32 18/34/32
f 5/30/33 15/31/33 14/35/33
f 5/30/34 14/35/34 13/36/34
f 5/30/35 13/36/35 12/37/35
f 5/30/36 12/37/36 11/29/36
f 24/38/37 9/39/37 25/40/37
f 24/38/38 25/40/38 40/41/38
f 23/42/39 24/38/39 40/41/39
f 23/42/39 40/41/39 39/43/39
f 22/44/40 23/42/40 39/43/40
f 22/44/40 39/43/40 38/45/40
f 21/46/41 22/44/41 38/45/41
f 21/46/42 38/45/42 37/47/42
f 20/48/43 21/46/43 37/47/43
f 20/48/44 37/47/44 36/49/44
f 19/50/45 20/48/45 36/49/45
f 19/50/46 36/49/46 35/51/46
f 18/52/47 19/50/47 35/51/47
f 18/52/48 35/51/48 34/53/48
f 17/54/49 18/52/49 34/53/49
f 17/54/50 34/53/50 33/55/50
f 16/56/51 17/54/51 33/55/51
f 16/56/52 33/55/52 32/57/52
f 15/58/53 16/56/53 32/57/53
f 15/58/53 32/57/53 31/59/53
f 14/60/54 15/58/54 31/59/54
f 14/60/54 31/59/54 30/61/54
f 13/62/55 14/60/55 30/61/55
f 13/62/56 30/61/56 29/63/56
f 12/64/57 13/62/57 29/63/57
f 12/64/58 29/63/58 28/65/58
f 11/66/59 12/64/59 28/65/59
f 11/66/60 28/65/60 27/67/60
f 10/68/61 11/66/61 27/67/61
f 10/68/62 27/67/62 26/69/62
f 9/39/63 10/68/63 26/69/63
f 9/39/64 26/69/64 25/40/64
f 5/70/65 1/71/65 4/72/65
f 5/70/65 4/72/65 8/73/65
f 3/70/66 7/71/66 8/72/66
f 3/70/66 8/72/66 4/73/66
f 2/70/67 6/71/67 7/72/67
f 2/70/67 7/72/67 3/73/67
f 1/70/68 5/71/68 6/72/68
f 1/70/68 6/72/68 2/73/68
f 1/74/69 2/75/69 3/76/69
f 1/74/69 3/76/69 4/77/69
