# Blender3D v248 OBJ File: p1000.blend
# www.blender3d.org
mtllib p1000.mtl
v 1.000002 0.999999 0.005295
v 1.000002 -0.999999 0.005295
v -1.000002 -0.999999 0.005295
v -1.000002 0.999999 0.005295
v 1.000002 0.999999 1.994713
v 1.000002 -0.999999 1.994713
v -1.000002 -0.999999 1.994713
v -1.000002 0.999999 1.994713
v 0.424264 -0.424261 2.003685
v 0.554328 -0.229605 2.003685
v 0.600000 0.000004 2.003685
v 0.554328 0.229625 2.003685
v 0.424264 0.424282 2.003685
v 0.229610 0.554328 2.003685
v 0.000000 0.600009 2.003685
v -0.229610 0.554328 2.003685
v -0.424264 0.424282 2.003685
v -0.554328 0.229625 2.003685
v -0.600000 0.000004 2.003685
v -0.554328 -0.229605 2.003685
v -0.424264 -0.424261 2.003685
v -0.229610 -0.554319 2.003685
v 0.000000 -0.600000 2.003685
v 0.229610 -0.554319 2.003685
v 0.424264 -0.424261 1.719162
v 0.554328 -0.229605 1.719162
v 0.600000 0.000004 1.719162
v 0.554327 0.229625 1.719162
v 0.424263 0.424282 1.719162
v 0.229609 0.554328 1.719162
v -0.000001 0.600009 1.719162
v -0.229611 0.554328 1.719162
v -0.424265 0.424282 1.719162
v -0.554328 0.229625 1.719162
v -0.600000 0.000004 1.719162
v -0.554327 -0.229605 1.719162
v -0.424263 -0.424261 1.719162
v -0.229608 -0.554319 1.719162
v 0.000002 -0.600000 1.719162
v 0.229612 -0.554319 1.719162
v 0.000000 0.000006 1.718651
vt 0.770059 0.699531
vt 0.836015 0.633575
vt 0.856234 0.663836
vt 0.863335 0.699531
vt 0.856234 0.735227
vt 0.836015 0.765489
vt 0.805754 0.785705
vt 0.770059 0.792807
vt 0.734364 0.785705
vt 0.704103 0.765489
vt 0.683884 0.735227
vt 0.676784 0.699531
vt 0.683884 0.663836
vt 0.704104 0.633575
vt 0.734365 0.613356
vt 0.770060 0.606255
vt 0.805754 0.613356
vt 0.181469 0.257824
vt 0.312334 0.333532
vt 0.279269 0.355625
vt 0.257175 0.388691
vt 0.249417 0.427694
vt 0.181469 0.597563
vt 0.351338 0.325772
vt 0.521208 0.257824
vt 0.390342 0.333532
vt 0.423408 0.355625
vt 0.445501 0.388691
vt 0.453260 0.427694
vt 0.521208 0.597563
vt 0.351338 0.529617
vt 0.312334 0.521857
vt 0.279269 0.499766
vt 0.257175 0.466700
vt 0.390342 0.521857
vt 0.423408 0.499766
vt 0.445501 0.466700
vt 0.223541 0.434358
vt 0.239569 0.475315
vt 0.181365 0.516291
vt 0.153915 0.449984
vt 0.224271 0.390221
vt 0.153915 0.378154
vt 0.241663 0.349654
vt 0.181291 0.311797
vt 0.273029 0.318842
vt 0.231817 0.261017
vt 0.313512 0.302467
vt 0.297750 0.233573
vt 0.356814 0.302976
vt 0.368900 0.233718
vt 0.396173 0.320197
vt 0.434118 0.261431
vt 0.425357 0.351215
vt 0.483076 0.312207
vt 0.439576 0.391545
vt 0.508118 0.377875
vt 0.436604 0.435544
vt 0.506397 0.447779
vt 0.421564 0.476911
vt 0.481195 0.512331
vt 0.391905 0.507884
vt 0.433533 0.563512
vt 0.352530 0.524390
vt 0.369183 0.592345
vt 0.309585 0.524039
vt 0.298217 0.593573
vt 0.269839 0.506816
vt 0.232101 0.566805
vt 0.112481 0.586921
vt 0.112480 0.226921
vt 0.472480 0.226921
vt 0.472480 0.586921
vt 0.677458 0.802580
vt 0.871858 0.802580
vt 0.871858 0.996980
vt 0.677458 0.996980
vn -0.000722 0.000483 1.000000
vn -0.000852 0.000169 1.000000
vn -0.000852 -0.000169 1.000000
vn -0.000722 -0.000483 1.000000
vn -0.000483 -0.000722 1.000000
vn -0.000169 -0.000852 1.000000
vn 0.000169 -0.000852 1.000000
vn 0.000483 -0.000722 1.000000
vn 0.000722 -0.000483 1.000000
vn 0.000852 -0.000169 1.000000
vn 0.000852 0.000169 1.000000
vn 0.000722 0.000483 1.000000
vn 0.000483 0.000722 1.000000
vn 0.000169 0.000852 1.000000
vn -0.000169 0.000852 1.000000
vn -0.000483 0.000722 1.000000
vn -0.006241 -0.009341 0.999937
vn -0.009341 -0.006242 0.999937
vn -0.014979 -0.002980 0.999883
vn -0.022425 0.000000 0.999749
vn -0.002980 -0.014978 0.999883
vn 0.000000 -0.022425 0.999749
vn 0.002980 -0.014978 0.999883
vn 0.006241 -0.009341 0.999937
vn 0.009341 -0.006242 0.999937
vn 0.014979 -0.002980 0.999883
vn 0.022425 0.000000 0.999749
vn 0.000000 0.022425 0.999749
vn -0.002980 0.014978 0.999883
vn -0.006241 0.009342 0.999937
vn -0.009341 0.006242 0.999937
vn -0.014979 0.002979 0.999883
vn 0.002980 0.014978 0.999883
vn 0.006241 0.009342 0.999937
vn 0.009341 0.006242 0.999937
vn 0.014979 0.002979 0.999883
vn -0.555552 0.831482 -0.000001
vn -0.555554 0.831480 -0.000003
vn -0.195126 0.980778 -0.000001
vn 0.195126 0.980778 0.000001
vn 0.555551 0.831482 0.000003
vn 0.555551 0.831483 0.000002
vn 0.831473 0.555565 0.000003
vn 0.831472 0.555566 0.000002
vn 0.980785 0.195091 0.000002
vn 0.980785 0.195094 0.000000
vn 0.980787 -0.195082 -0.000000
vn 0.980788 -0.195079 -0.000002
vn 0.831473 -0.555565 -0.000002
vn 0.831474 -0.555564 -0.000003
vn 0.555516 -0.831506 -0.000002
vn 0.555517 -0.831505 -0.000002
vn 0.195126 -0.980778 -0.000001
vn -0.195126 -0.980778 0.000001
vn -0.555516 -0.831506 0.000002
vn -0.555516 -0.831506 0.000001
vn -0.831473 -0.555565 0.000002
vn -0.831473 -0.555566 0.000001
vn -0.980787 -0.195082 0.000001
vn -0.980787 -0.195083 -0.000000
vn -0.980785 0.195091 0.000000
vn -0.980785 0.195090 -0.000001
vn -0.831473 0.555565 -0.000001
vn -0.831474 0.555564 -0.000001
vn 0.000000 1.000000 0.000000
vn -1.000000 0.000000 0.000000
vn 0.000000 -1.000000 0.000000
vn 1.000000 0.000000 0.000000
vn 0.000000 0.000000 -1.000000
g Cube_Cube_None_QuartoPieces.png
usemtl None_QuartoPieces.png
s off
f 41/1/1 25/2/1 26/3/1
f 41/1/2 26/3/2 27/4/2
f 41/1/3 27/4/3 28/5/3
f 41/1/4 28/5/4 29/6/4
f 41/1/5 29/6/5 30/7/5
f 41/1/6 30/7/6 31/8/6
f 41/1/7 31/8/7 32/9/7
f 41/1/8 32/9/8 33/10/8
f 41/1/9 33/10/9 34/11/9
f 41/1/10 34/11/10 35/12/10
f 41/1/11 35/12/11 36/13/11
f 41/1/12 36/13/12 37/14/12
f 41/1/13 37/14/13 38/15/13
f 41/1/14 38/15/14 39/16/14
f 41/1/15 39/16/15 40/17/15
f 41/1/16 40/17/16 25/2/16
f 7/18/17 22/19/17 21/20/17
f 7/18/18 21/20/18 20/21/18
f 7/18/19 20/21/19 19/22/19
f 7/18/20 19/22/20 8/23/20
f 7/18/21 23/24/21 22/19/21
f 6/25/22 23/24/22 7/18/22
f 6/25/23 24/26/23 23/24/23
f 6/25/24 9/27/24 24/26/24
f 6/25/25 10/28/25 9/27/25
f 6/25/26 11/29/26 10/28/26
f 5/30/27 11/29/27 6/25/27
f 5/30/28 8/23/28 15/31/28
f 8/23/29 16/32/29 15/31/29
f 8/23/30 17/33/30 16/32/30
f 8/23/31 18/34/31 17/33/31
f 8/23/32 19/22/32 18/34/32
f 5/30/33 15/31/33 14/35/33
f 5/30/34 14/35/34 13/36/34
f 5/30/35 13/36/35 12/37/35
f 5/30/36 12/37/36 11/29/36
f 24/38/37 9/39/37 25/40/37
f 24/38/38 25/40/38 40/41/38
f 23/42/39 24/38/39 40/41/39
f 23/42/39 40/41/39 39/43/39
f 22/44/40 23/42/40 39/43/40
f 22/44/40 39/43/40 38/45/40
f 21/46/41 22/44/41 38/45/41
f 21/46/42 38/45/42 37/47/42
f 20/48/43 21/46/43 37/47/43
f 20/48/44 37/47/44 36/49/44
f 19/50/45 20/48/45 36/49/45
f 19/50/46 36/49/46 35/51/46
f 18/52/47 19/50/47 35/51/47
f 18/52/48 35/51/48 34/53/48
f 17/54/49 18/52/49 34/53/49
f 17/54/50 34/53/50 33/55/50
f 16/56/51 17/54/51 33/55/51
f 16/56/52 33/55/52 32/57/52
f 15/58/53 16/56/53 32/57/53
f 15/58/53 32/57/53 31/59/53
f 14/60/54 15/58/54 31/59/54
f 14/60/54 31/59/54 30/61/54
f 13/62/55 14/60/55 30/61/55
f 13/62/56 30/61/56 29/63/56
f 12/64/57 13/62/57 29/63/57
f 12/64/58 29/63/58 28/65/58
f 11/66/59 12/64/59 28/65/59
f 11/66/60 28/65/60 27/67/60
f 10/68/61 11/66/61 27/67/61
f 10/68/62 27/67/62 26/69/62
f 9/39/63 10/68/63 26/69/63
f 9/39/64 26/69/64 25/40/64
f 5/70/65 1/71/65 4/72/65
f 5/70/65 4/72/65 8/73/65
f 3/70/66 7/71/66 8/72/66
f 3/70/66 8/72/66 4/73/66
f 2/70/67 6/71/67 7/72/67
f 2/70/67 7/72/67 3/73/67
f 1/70/68 5/71/68 6/72/68
f 1/70/68 6/72/68 2/73/68
f 1/74/69 2/75/69 3/76/69
f 1/74/69 3/76/69 4/77/69
