# Blender3D v248 OBJ File: p1110.blend
# www.blender3d.org
mtllib p1110.mtl
v 0.707107 0.707107 0.000000
v 0.923879 0.382683 0.000000
v 1.000000 -0.000000 0.000000
v 0.923879 -0.382683 0.000000
v 0.707107 -0.707107 0.000000
v 0.382683 -0.923879 0.000000
v 0.000000 -1.000000 0.000000
v -0.382683 -0.923880 0.000000
v -0.707107 -0.707107 0.000000
v -0.923879 -0.382684 0.000000
v -1.000000 0.000000 0.000000
v -0.923879 0.382684 0.000000
v -0.707107 0.707107 0.000000
v -0.382683 0.923880 0.000000
v 0.000001 1.000000 0.000000
v 0.382684 0.923879 0.000000
v 0.707107 0.707106 4.000000
v 0.923880 0.382682 4.000000
v 1.000000 -0.000001 4.000000
v 0.923879 -0.382685 4.000000
v 0.707106 -0.707108 4.000000
v 0.382682 -0.923880 4.000000
v -0.000002 -1.000000 4.000000
v -0.382685 -0.923879 4.000000
v -0.707108 -0.707105 4.000000
v -0.923880 -0.382681 4.000000
v -1.000000 0.000003 4.000000
v -0.923878 0.382686 4.000000
v -0.707105 0.707109 4.000000
v -0.382681 0.923881 4.000000
v 0.000003 1.000000 4.000000
v 0.382687 0.923878 4.000000
v 0.000000 0.000000 0.000000
v 0.424265 0.424264 4.002373
v 0.554328 0.229609 4.002373
v 0.600000 -0.000001 4.002373
v 0.554327 -0.229611 4.002373
v 0.424263 -0.424265 4.002373
v 0.229609 -0.554328 4.002373
v -0.000001 -0.600000 4.002373
v -0.229611 -0.554327 4.002373
v -0.424265 -0.424263 4.002373
v -0.554328 -0.229609 4.002373
v -0.600000 0.000002 4.002373
v -0.554327 0.229612 4.002373
v -0.424263 0.424265 4.002373
v -0.229608 0.554328 4.002373
v 0.000002 0.600000 4.002373
v 0.229612 0.554327 4.002373
v 0.424265 0.424264 3.714691
v 0.229612 0.554327 3.714691
v 0.000002 0.600000 3.714691
v -0.229608 0.554328 3.714691
v -0.424263 0.424265 3.714691
v -0.554327 0.229612 3.714691
v -0.600000 0.000002 3.714691
v -0.554328 -0.229609 3.714691
v -0.424265 -0.424263 3.714691
v -0.229611 -0.554327 3.714691
v -0.000001 -0.600000 3.714691
v 0.229609 -0.554328 3.714691
v 0.424263 -0.424265 3.714691
v 0.554327 -0.229611 3.714691
v 0.600000 -0.000001 3.714691
v 0.554328 0.229609 3.714691
v 0.000000 0.000000 3.712532
vt 0.770956 0.903668
vt 0.838651 0.971363
vt 0.859404 0.940304
vt 0.866692 0.903668
vt 0.859404 0.867031
vt 0.838651 0.835972
vt 0.807592 0.815219
vt 0.770956 0.807932
vt 0.734319 0.815219
vt 0.703260 0.835972
vt 0.682507 0.867031
vt 0.675220 0.903668
vt 0.682507 0.940304
vt 0.703260 0.971363
vt 0.734319 0.992116
vt 0.770956 0.999404
vt 0.807592 0.992116
vt 0.805761 0.783226
vt 0.770956 0.699200
vt 0.835266 0.763511
vt 0.770956 0.790149
vt 0.736151 0.783226
vt 0.706645 0.763511
vt 0.686930 0.734005
vt 0.680007 0.699200
vt 0.686929 0.664396
vt 0.706645 0.634889
vt 0.736151 0.615174
vt 0.770955 0.608251
vt 0.805760 0.615174
vt 0.835266 0.634889
vt 0.854982 0.664395
vt 0.861905 0.699200
vt 0.854982 0.734005
vt 0.396010 0.490971
vt 0.363195 0.504551
vt 0.356065 0.462890
vt 0.373035 0.455190
vt 0.421029 0.465610
vt 0.385827 0.441309
vt 0.434433 0.432542
vt 0.392421 0.423319
vt 0.434448 0.396863
vt 0.392162 0.403989
vt 0.421033 0.363809
vt 0.384689 0.386316
vt 0.396065 0.338382
vt 0.371175 0.372946
vt 0.363289 0.324551
vt 0.353731 0.365892
vt 0.327785 0.324551
vt 0.335093 0.366208
vt 0.295180 0.338425
vt 0.318203 0.373822
vt 0.270669 0.363916
vt 0.305751 0.387578
vt 0.257940 0.396824
vt 0.299837 0.405431
vt 0.258245 0.432050
vt 0.300160 0.424894
vt 0.271413 0.464649
vt 0.307627 0.442680
vt 0.295615 0.489989
vt 0.320536 0.456194
vt 0.327834 0.504154
vt 0.337596 0.463251
vt 0.430043 0.592283
vt 0.393406 0.503835
vt 0.424464 0.483082
vt 0.492160 0.550777
vt 0.356770 0.606858
vt 0.356769 0.511122
vt 0.283496 0.592284
vt 0.320133 0.503835
vt 0.221378 0.550778
vt 0.289074 0.483082
vt 0.179872 0.488660
vt 0.268321 0.452023
vt 0.165297 0.415387
vt 0.261033 0.415387
vt 0.179872 0.342114
vt 0.268320 0.378750
vt 0.221378 0.279996
vt 0.289073 0.347691
vt 0.283495 0.238490
vt 0.320132 0.326938
vt 0.356769 0.223915
vt 0.356769 0.319651
vt 0.430042 0.238490
vt 0.393405 0.326938
vt 0.492160 0.279995
vt 0.424464 0.347691
vt 0.533666 0.342113
vt 0.445217 0.378750
vt 0.548241 0.415386
vt 0.452505 0.415386
vt 0.533666 0.488659
vt 0.445217 0.452023
vt 0.218141 0.238489
vt 0.218141 0.594171
vt 0.275741 0.594171
vt 0.275741 0.238489
vt 0.343687 0.594171
vt 0.343687 0.238489
vt 0.411633 0.594171
vt 0.411632 0.238489
vt 0.469235 0.594171
vt 0.469233 0.238489
vt 0.218139 0.238489
vt 0.469234 0.238489
vt 0.411633 0.238489
vn 0.000000 0.000000 -1.000000
vn -0.002038 -0.003051 0.999993
vn -0.000716 -0.003599 0.999993
vn 0.000716 -0.003599 0.999993
vn 0.002038 -0.003051 0.999993
vn 0.003051 -0.002038 0.999993
vn 0.003599 -0.000716 0.999993
vn 0.003599 0.000716 0.999993
vn 0.003051 0.002038 0.999993
vn 0.002038 0.003051 0.999993
vn 0.000716 0.003599 0.999993
vn -0.000716 0.003599 0.999993
vn -0.002038 0.003051 0.999993
vn -0.003051 0.002038 0.999993
vn -0.003599 0.000716 0.999993
vn -0.003599 -0.000716 0.999993
vn -0.003051 -0.002038 0.999993
vn -0.831470 -0.555569 0.000000
vn -0.980786 -0.195089 0.000000
vn -0.980785 0.195092 0.000000
vn -0.831469 0.555571 0.000000
vn -0.555569 0.831471 0.000000
vn -0.195088 0.980786 0.000000
vn 0.195092 0.980785 0.000000
vn 0.555572 0.831468 0.000000
vn 0.831471 0.555569 0.000000
vn 0.980786 0.195088 0.000000
vn 0.980785 -0.195093 0.000000
vn 0.831468 -0.555573 0.000000
vn 0.555568 -0.831471 0.000000
vn 0.195087 -0.980786 0.000000
vn -0.195094 -0.980785 0.000000
vn -0.555572 -0.831469 0.000000
vn 0.003360 0.005029 0.999982
vn 0.001180 0.005932 0.999982
vn -0.001180 0.005932 0.999982
vn -0.003360 0.005029 0.999982
vn -0.005029 0.003360 0.999982
vn -0.005932 0.001180 0.999982
vn -0.005932 -0.001180 0.999982
vn -0.005029 -0.003360 0.999982
vn -0.003360 -0.005029 0.999982
vn -0.001180 -0.005932 0.999982
vn 0.001180 -0.005932 0.999982
vn 0.003360 -0.005029 0.999982
vn 0.005029 -0.003360 0.999982
vn 0.005932 -0.001180 0.999982
vn 0.005932 0.001180 0.999982
vn 0.005029 0.003360 0.999982
vn 0.555570 0.831469 0.000000
vn 0.195094 0.980785 -0.000000
vn 0.195091 0.980785 0.000000
vn -0.195087 0.980786 -0.000000
vn -0.195090 0.980785 0.000000
vn -0.555568 0.831471 -0.000000
vn -0.555570 0.831470 0.000000
vn -0.831468 0.555573 -0.000000
vn -0.831469 0.555570 0.000000
vn -0.980785 0.195093 -0.000000
vn -0.980785 0.195090 0.000000
vn -0.980786 -0.195088 -0.000000
vn -0.980785 -0.195090 0.000000
vn -0.831471 -0.555569 -0.000000
vn -0.831470 -0.555570 0.000000
vn -0.555572 -0.831468 -0.000000
vn -0.555570 -0.831470 0.000000
vn -0.195092 -0.980785 -0.000000
vn -0.195090 -0.980785 0.000000
vn 0.195088 -0.980786 -0.000000
vn 0.195091 -0.980785 0.000000
vn 0.555569 -0.831470 -0.000000
vn 0.555570 -0.831470 0.000000
vn 0.831469 -0.555571 -0.000000
vn 0.831470 -0.555570 0.000000
vn 0.980785 -0.195092 -0.000000
vn 0.980785 -0.195091 0.000000
vn 0.980785 0.195089 -0.000000
vn 0.980785 0.195091 0.000000
vn 0.831470 0.555569 -0.000000
vn 0.831470 0.555570 0.000000
g Cube_Cube_None_QuartoPieces.png
usemtl None_QuartoPieces.png
s off
f 33/1/1 1/2/1 2/3/1
f 33/1/1 2/3/1 3/4/1
f 33/1/1 3/4/1 4/5/1
f 33/1/1 4/5/1 5/6/1
f 33/1/1 5/6/1 6/7/1
f 33/1/1 6/7/1 7/8/1
f 33/1/1 7/8/1 8/9/1
f 33/1/1 8/9/1 9/10/1
f 33/1/1 9/10/1 10/11/1
f 33/1/1 10/11/1 11/12/1
f 33/1/1 11/12/1 12/13/1
f 33/1/1 12/13/1 13/14/1
f 33/1/1 13/14/1 14/15/1
f 33/1/1 14/15/1 15/16/1
f 33/1/1 15/16/1 16/17/1
f 16/17/1 1/2/1 33/1/1
f 51/18/2 66/19/2 50/20/2
f 52/21/3 66/19/3 51/18/3
f 53/22/4 66/19/4 52/21/4
f 54/23/5 66/19/5 53/22/5
f 55/24/6 66/19/6 54/23/6
f 56/25/7 66/19/7 55/24/7
f 57/26/8 66/19/8 56/25/8
f 58/27/9 66/19/9 57/26/9
f 59/28/10 66/19/10 58/27/10
f 60/29/11 66/19/11 59/28/11
f 61/30/12 66/19/12 60/29/12
f 62/31/13 66/19/13 61/30/13
f 63/32/14 66/19/14 62/31/14
f 64/33/15 66/19/15 63/32/15
f 65/34/16 66/19/16 64/33/16
f 50/20/17 66/19/17 65/34/17
f 35/35/18 34/36/18 50/37/18
f 35/35/18 50/37/18 65/38/18
f 36/39/19 35/35/19 65/38/19
f 36/39/19 65/38/19 64/40/19
f 37/41/20 36/39/20 64/40/20
f 37/41/20 64/40/20 63/42/20
f 38/43/21 37/41/21 63/42/21
f 38/43/21 63/42/21 62/44/21
f 39/45/22 38/43/22 62/44/22
f 39/45/22 62/44/22 61/46/22
f 40/47/23 39/45/23 61/46/23
f 40/47/23 61/46/23 60/48/23
f 41/49/24 40/47/24 60/48/24
f 41/49/24 60/48/24 59/50/24
f 42/51/25 41/49/25 59/50/25
f 42/51/25 59/50/25 58/52/25
f 43/53/26 42/51/26 58/52/26
f 43/53/26 58/52/26 57/54/26
f 44/55/27 43/53/27 57/54/27
f 44/55/27 57/54/27 56/56/27
f 45/57/28 44/55/28 56/56/28
f 45/57/28 56/56/28 55/58/28
f 46/59/29 45/57/29 55/58/29
f 46/59/29 55/58/29 54/60/29
f 47/61/30 46/59/30 54/60/30
f 47/61/30 54/60/30 53/62/30
f 48/63/31 47/61/31 53/62/31
f 48/63/31 53/62/31 52/64/31
f 49/65/32 48/63/32 52/64/32
f 49/65/32 52/64/32 51/66/32
f 34/36/33 49/65/33 51/66/33
f 34/36/33 51/66/33 50/37/33
f 32/67/34 49/68/34 34/69/34
f 32/67/34 34/69/34 17/70/34
f 31/71/35 48/72/35 49/68/35
f 31/71/35 49/68/35 32/67/35
f 30/73/36 47/74/36 48/72/36
f 30/73/36 48/72/36 31/71/36
f 29/75/37 46/76/37 47/74/37
f 29/75/37 47/74/37 30/73/37
f 28/77/38 45/78/38 46/76/38
f 28/77/38 46/76/38 29/75/38
f 27/79/39 44/80/39 45/78/39
f 27/79/39 45/78/39 28/77/39
f 26/81/40 43/82/40 44/80/40
f 26/81/40 44/80/40 27/79/40
f 25/83/41 42/84/41 43/82/41
f 25/83/41 43/82/41 26/81/41
f 24/85/42 41/86/42 42/84/42
f 24/85/42 42/84/42 25/83/42
f 23/87/43 40/88/43 41/86/43
f 23/87/43 41/86/43 24/85/43
f 22/89/44 39/90/44 40/88/44
f 22/89/44 40/88/44 23/87/44
f 21/91/45 38/92/45 39/90/45
f 21/91/45 39/90/45 22/89/45
f 20/93/46 37/94/46 38/92/46
f 20/93/46 38/92/46 21/91/46
f 19/95/47 36/96/47 37/94/47
f 19/95/47 37/94/47 20/93/47
f 18/97/48 35/98/48 36/96/48
f 18/97/48 36/96/48 19/95/48
f 17/70/49 34/69/49 35/98/49
f 17/70/49 35/98/49 18/97/49
f 17/99/50 1/100/50 16/101/50
f 17/99/25 16/101/25 32/102/25
f 15/103/51 31/104/51 32/102/51
f 15/103/52 32/102/52 16/101/52
f 14/105/53 30/106/53 31/104/53
f 14/105/54 31/104/54 15/103/54
f 13/107/55 29/108/55 30/106/55
f 13/107/56 30/106/56 14/105/56
f 12/101/57 28/102/57 29/109/57
f 12/101/58 29/109/58 13/100/58
f 11/103/59 27/104/59 28/102/59
f 11/103/60 28/102/60 12/101/60
f 10/105/61 26/106/61 27/104/61
f 10/105/62 27/104/62 11/103/62
f 9/107/63 25/110/63 26/106/63
f 9/107/64 26/106/64 10/105/64
f 8/105/65 24/111/65 25/110/65
f 8/105/66 25/110/66 9/107/66
f 7/103/67 23/104/67 24/111/67
f 7/103/68 24/111/68 8/105/68
f 6/101/69 22/102/69 23/104/69
f 6/101/70 23/104/70 7/103/70
f 5/100/71 21/99/71 22/102/71
f 5/100/72 22/102/72 6/101/72
f 4/105/73 20/111/73 21/110/73
f 4/105/74 21/110/74 5/107/74
f 3/103/75 19/104/75 20/111/75
f 3/103/76 20/111/76 4/105/76
f 2/101/77 18/102/77 19/104/77
f 2/101/78 19/104/78 3/103/78
f 1/100/79 17/99/79 18/102/79
f 1/100/80 18/102/80 2/101/80
