# Blender3D v248 OBJ File: p0100.blend
# www.blender3d.org
mtllib p0100.mtl
v 0.707107 0.707107 0.000000
v 0.923879 0.382683 0.000000
v 1.000000 -0.000000 0.000000
v 0.923879 -0.382683 0.000000
v 0.707107 -0.707107 0.000000
v 0.382683 -0.923879 0.000000
v 0.000000 -1.000000 0.000000
v -0.382683 -0.923880 0.000000
v -0.707107 -0.707107 0.000000
v -0.923879 -0.382684 0.000000
v -1.000000 0.000000 0.000000
v -0.923879 0.382684 0.000000
v -0.707107 0.707107 0.000000
v -0.382683 0.923880 0.000000
v 0.000001 1.000000 0.000000
v 0.382684 0.923879 0.000000
v 0.707107 0.707106 2.000000
v 0.923880 0.382682 2.000000
v 1.000000 -0.000001 2.000000
v 0.923879 -0.382685 2.000000
v 0.707106 -0.707108 2.000000
v 0.382682 -0.923880 2.000000
v -0.000002 -1.000000 2.000000
v -0.382685 -0.923879 2.000000
v -0.707108 -0.707105 2.000000
v -0.923880 -0.382681 2.000000
v -1.000000 0.000003 2.000000
v -0.923878 0.382686 2.000000
v -0.707105 0.707109 2.000000
v -0.382681 0.923881 2.000000
v 0.000003 1.000000 2.000000
v 0.382687 0.923878 2.000000
v 0.000000 0.000000 0.000000
v 0.000000 0.000000 2.000000
v 0.923880 0.382683 1.466522
v 0.831492 0.344415 1.556633
v 0.831492 0.344415 1.624908
v 0.923880 0.382683 1.715019
v 0.707107 0.707107 1.466522
v 0.636396 0.636396 1.556633
v 0.636396 0.636396 1.624908
v 0.707107 0.707106 1.715019
v 1.000000 -0.000000 1.466522
v 0.900000 -0.000000 1.556633
v 0.900000 -0.000001 1.624908
v 1.000000 -0.000001 1.715019
v 0.923879 -0.382684 1.466522
v 0.831491 -0.344416 1.556633
v 0.831491 -0.344416 1.624908
v 0.923879 -0.382684 1.715019
v 0.707107 -0.707107 1.466522
v 0.636396 -0.636396 1.556633
v 0.636396 -0.636397 1.624908
v 0.707106 -0.707108 1.715019
v 0.382683 -0.923880 1.466522
v 0.344415 -0.831492 1.556633
v 0.344414 -0.831492 1.624908
v 0.382682 -0.923880 1.715019
v -0.000000 -1.000000 1.466522
v -0.000001 -0.900000 1.556633
v -0.000001 -0.900000 1.624908
v -0.000002 -1.000000 1.715019
v -0.382684 -0.923879 1.466522
v -0.344416 -0.831491 1.556633
v -0.344416 -0.831491 1.624908
v -0.382685 -0.923879 1.715019
v -0.707107 -0.707107 1.466522
v -0.636397 -0.636396 1.556633
v -0.636397 -0.636395 1.624908
v -0.707108 -0.707106 1.715019
v -0.923880 -0.382683 1.466522
v -0.831492 -0.344414 1.556633
v -0.831492 -0.344414 1.624908
v -0.923880 -0.382682 1.715019
v -1.000000 0.000001 1.466522
v -0.900000 0.000001 1.556633
v -0.900000 0.000001 1.624908
v -1.000000 0.000002 1.715019
v -0.923879 0.382684 1.466522
v -0.831491 0.344416 1.556633
v -0.831491 0.344417 1.624908
v -0.923879 0.382685 1.715019
v -0.707106 0.707107 1.466522
v -0.636395 0.636397 1.556633
v -0.636395 0.636397 1.624908
v -0.707105 0.707108 1.715019
v -0.382683 0.923880 1.466522
v -0.344414 0.831492 1.556633
v -0.344413 0.831492 1.624908
v -0.382681 0.923880 1.715019
v 0.000001 1.000000 1.466522
v 0.000002 0.900000 1.556633
v 0.000002 0.900000 1.624908
v 0.000003 1.000000 1.715019
v 0.382685 0.923879 1.466522
v 0.344417 0.831491 1.556633
v 0.344417 0.831491 1.624908
v 0.382686 0.923878 1.715019
vt 0.748230 0.753296
vt 0.919703 0.924769
vt 0.972271 0.846097
vt 0.972271 0.846096
vt 0.919704 0.924769
vt 0.990730 0.753296
vt 0.990730 0.753295
vt 0.972271 0.660495
vt 0.919703 0.581822
vt 0.841031 0.529255
vt 0.841030 0.529255
vt 0.748230 0.510796
vt 0.655429 0.529255
vt 0.576757 0.581822
vt 0.576756 0.581823
vt 0.524189 0.660495
vt 0.524189 0.660496
vt 0.505730 0.753296
vt 0.524189 0.846097
vt 0.576757 0.924769
vt 0.576757 0.924770
vt 0.655429 0.977337
vt 0.655430 0.977337
vt 0.748230 0.995796
vt 0.748231 0.995796
vt 0.841031 0.977337
vt 0.841032 0.977336
vt 0.861019 0.520278
vt 0.862338 0.981237
vt 0.750408 0.981611
vt 0.749092 0.520651
vt 0.509694 0.788583
vt 0.509694 0.871366
vt 0.619134 0.871366
vt 0.619134 0.788583
vt 0.017323 0.416744
vt 0.017323 0.458134
vt 0.126763 0.458134
vt 0.126763 0.416744
vt 0.509694 0.623020
vt 0.509694 0.705802
vt 0.619134 0.705802
vt 0.619134 0.623020
vt 0.509694 0.540238
vt 0.619134 0.540238
vt 0.748231 0.623020
vt 0.748231 0.540238
vt 0.748231 0.705802
vt 0.255860 0.458134
vt 0.255860 0.416744
vt 0.748231 0.871366
vt 0.748231 0.788583
vt 0.638478 0.981986
vt 0.637165 0.521024
vt 0.877327 0.623020
vt 0.877326 0.540238
vt 0.877327 0.705802
vt 0.384957 0.458134
vt 0.384956 0.416744
vt 0.877328 0.871366
vt 0.877327 0.788583
vt 0.526548 0.982361
vt 0.525238 0.521397
vt 0.986769 0.623020
vt 0.986768 0.540238
vt 0.986769 0.705802
vt 0.494399 0.458134
vt 0.494399 0.416744
vt 0.986770 0.871366
vt 0.986770 0.788583
vt 0.876554 0.985716
vt 0.875246 0.524750
vt 0.987174 0.524377
vt 0.988484 0.985341
vt 0.509690 0.540238
vt 0.509691 0.623020
vt 0.509691 0.705802
vt 0.017321 0.416744
vt 0.017322 0.458134
vt 0.509692 0.788583
vt 0.509693 0.871366
vt 0.865952 0.989071
vt 0.864647 0.528103
vt 0.976574 0.527730
vt 0.977882 0.988696
vt 0.754022 0.989446
vt 0.752720 0.528476
vt 0.642093 0.989820
vt 0.640792 0.528849
vt 0.986770 0.623020
vt 0.986770 0.540238
vt 0.986770 0.705802
vt 0.494400 0.458134
vt 0.494400 0.416744
vt 0.530163 0.990195
vt 0.528865 0.529221
vt 0.877328 0.623020
vt 0.877328 0.540238
vt 0.877328 0.705802
vt 0.384957 0.416744
vt 0.877328 0.788583
vt 0.986771 0.871366
vt 0.859307 0.990570
vt 0.858012 0.529594
vt 0.969939 0.529221
vt 0.971237 0.990195
vt 0.747377 0.990944
vt 0.746085 0.529967
vt 0.635448 0.991319
vt 0.634158 0.530340
vt 0.523518 0.991694
vt 0.522230 0.530713
vt 0.760033 0.986073
vt 0.758707 0.525120
vt 0.870635 0.524747
vt 0.871963 0.985698
vt 0.648103 0.986448
vt 0.646780 0.525493
vt 0.536173 0.986822
vt 0.534853 0.525866
vt 0.972947 0.519905
vt 0.974267 0.980862
vn 0.000000 0.000000 -1.000000
vn 0.000000 0.000000 1.000000
vn 0.555570 0.831469 0.000000
vn 0.555571 0.831469 -0.000000
vn 0.375878 0.562541 0.736385
vn 0.375879 0.562541 0.736385
vn 0.555571 0.831469 -0.000001
vn 0.375879 0.562541 -0.736385
vn 0.375879 0.562540 -0.736386
vn 0.555572 0.831469 -0.000000
vn 0.555572 0.831468 -0.000000
vn 0.195094 0.980785 -0.000000
vn 0.195093 0.980785 0.000000
vn 0.131993 0.663562 -0.736386
vn 0.131992 0.663563 -0.736385
vn 0.195093 0.980785 -0.000001
vn 0.195092 0.980785 0.000001
vn 0.131992 0.663563 0.736385
vn 0.131992 0.663562 0.736385
vn 0.195092 0.980785 -0.000000
vn 0.195091 0.980785 0.000000
vn -0.195087 0.980786 -0.000000
vn -0.195088 0.980786 0.000000
vn -0.131989 0.663562 -0.736386
vn -0.131989 0.663563 -0.736385
vn -0.195088 0.980786 -0.000001
vn -0.195089 0.980786 0.000001
vn -0.131990 0.663563 0.736385
vn -0.131990 0.663562 0.736386
vn -0.195089 0.980785 -0.000000
vn -0.195090 0.980785 0.000000
vn -0.555568 0.831471 -0.000000
vn -0.375876 0.562542 -0.736386
vn -0.375877 0.562542 -0.736385
vn -0.555569 0.831471 -0.000000
vn -0.555569 0.831470 0.000001
vn -0.375877 0.562542 0.736385
vn -0.375877 0.562541 0.736386
vn -0.555569 0.831470 -0.000000
vn -0.555570 0.831470 0.000000
vn -0.831468 0.555573 -0.000000
vn -0.831468 0.555572 0.000001
vn -0.562540 0.375879 -0.736386
vn -0.562540 0.375879 -0.736385
vn -0.831469 0.555572 -0.000001
vn -0.831469 0.555571 0.000002
vn -0.562541 0.375879 0.736385
vn -0.562540 0.375878 0.736386
vn -0.831469 0.555571 -0.000000
vn -0.831469 0.555570 0.000000
vn -0.980785 0.195093 -0.000000
vn -0.980785 0.195092 0.000000
vn -0.663562 0.131992 -0.736386
vn -0.663563 0.131992 -0.736385
vn -0.980785 0.195092 -0.000001
vn -0.980785 0.195092 0.000001
vn -0.663563 0.131992 0.736385
vn -0.663562 0.131991 0.736386
vn -0.980785 0.195091 -0.000000
vn -0.980785 0.195090 0.000000
vn -0.980786 -0.195088 -0.000000
vn -0.663562 -0.131989 -0.736386
vn -0.663563 -0.131990 -0.736385
vn -0.980786 -0.195089 -0.000003
vn -0.980785 -0.195090 0.000001
vn -0.663563 -0.131990 0.736385
vn -0.663562 -0.131990 0.736386
vn -0.980785 -0.195090 -0.000000
vn -0.831471 -0.555569 -0.000000
vn -0.562541 -0.375877 -0.736386
vn -0.562542 -0.375878 -0.736385
vn -0.831470 -0.555569 -0.000002
vn -0.831470 -0.555570 -0.000000
vn -0.562541 -0.375877 0.736385
vn -0.562541 -0.375877 0.736386
vn -0.555572 -0.831468 -0.000000
vn -0.555572 -0.831469 0.000001
vn -0.375879 -0.562540 -0.736386
vn -0.375879 -0.562541 -0.736385
vn -0.555571 -0.831469 -0.000001
vn -0.555571 -0.831469 0.000000
vn -0.375879 -0.562541 0.736385
vn -0.375878 -0.562540 0.736386
vn -0.555570 -0.831469 -0.000000
vn -0.555570 -0.831470 0.000000
vn -0.195092 -0.980785 -0.000000
vn -0.195092 -0.980785 0.000001
vn -0.131992 -0.663562 -0.736386
vn -0.131992 -0.663562 -0.736385
vn -0.195092 -0.980785 -0.000001
vn -0.195091 -0.980785 0.000001
vn -0.131991 -0.663563 0.736385
vn -0.131991 -0.663562 0.736386
vn -0.195091 -0.980785 -0.000000
vn -0.195090 -0.980785 0.000000
vn 0.195088 -0.980786 -0.000001
vn 0.195089 -0.980785 0.000000
vn 0.131990 -0.663563 -0.736385
vn 0.195089 -0.980785 -0.000002
vn 0.195090 -0.980785 0.000001
vn 0.131990 -0.663563 0.736385
vn 0.131991 -0.663562 0.736386
vn 0.195090 -0.980785 -0.000000
vn 0.195091 -0.980785 0.000000
vn 0.555569 -0.831471 -0.000000
vn 0.555569 -0.831470 -0.000000
vn 0.375877 -0.562541 -0.736386
vn 0.375878 -0.562542 -0.736385
vn 0.555569 -0.831470 -0.000001
vn 0.555570 -0.831470 0.000000
vn 0.375878 -0.562542 0.736385
vn 0.375878 -0.562541 0.736386
vn 0.831469 -0.555571 -0.000000
vn 0.562540 -0.375878 -0.736386
vn 0.562541 -0.375879 -0.736385
vn 0.831469 -0.555571 -0.000001
vn 0.831469 -0.555571 0.000001
vn 0.562541 -0.375878 0.736385
vn 0.831470 -0.555570 -0.000000
vn 0.980785 -0.195092 -0.000000
vn 0.980785 -0.195091 0.000000
vn 0.663562 -0.131991 -0.736385
vn 0.980785 -0.195091 -0.000001
vn 0.663562 -0.131991 0.736385
vn 0.980785 0.195089 -0.000000
vn 0.663563 0.131990 -0.736385
vn 0.980785 0.195089 -0.000002
vn 0.980785 0.195090 0.000001
vn 0.663563 0.131991 0.736385
vn 0.663562 0.131991 0.736385
vn 0.980785 0.195090 -0.000000
vn 0.980785 0.195091 0.000000
vn 0.831470 0.555569 -0.000000
vn 0.831470 0.555570 0.000000
vn 0.562541 0.375877 -0.736385
vn 0.562542 0.375878 -0.736385
vn 0.831470 0.555570 -0.000001
vn 0.562542 0.375878 0.736385
vn 0.562541 0.375878 0.736385
g Cube_Cube_None_QuartoPieces.png
usemtl None_QuartoPieces.png
s off
f 33/1/1 1/2/1 2/3/1
f 34/1/2 18/4/2 17/5/2
f 33/1/1 2/3/1 3/6/1
f 34/1/2 19/7/2 18/4/2
f 33/1/1 3/6/1 4/8/1
f 34/1/2 20/8/2 19/7/2
f 33/1/1 4/8/1 5/9/1
f 34/1/2 21/9/2 20/8/2
f 33/1/1 5/9/1 6/10/1
f 34/1/2 22/11/2 21/9/2
f 33/1/1 6/10/1 7/12/1
f 34/1/2 23/12/2 22/11/2
f 33/1/1 7/12/1 8/13/1
f 34/1/2 24/13/2 23/12/2
f 33/1/1 8/13/1 9/14/1
f 34/1/2 25/15/2 24/13/2
f 33/1/1 9/14/1 10/16/1
f 34/1/2 26/17/2 25/15/2
f 33/1/1 10/16/1 11/18/1
f 34/1/2 27/18/2 26/17/2
f 33/1/1 11/18/1 12/19/1
f 34/1/2 28/19/2 27/18/2
f 33/1/1 12/19/1 13/20/1
f 34/1/2 29/21/2 28/19/2
f 33/1/1 13/20/1 14/22/1
f 34/1/2 30/23/2 29/21/2
f 33/1/1 14/22/1 15/24/1
f 34/1/2 31/25/2 30/23/2
f 33/1/1 15/24/1 16/26/1
f 34/1/2 32/27/2 31/25/2
f 16/26/1 1/2/1 33/1/1
f 34/1/2 17/5/2 32/27/2
f 39/28/3 1/29/3 16/30/3
f 39/28/4 16/30/4 95/31/4
f 40/32/5 39/33/5 95/34/5
f 40/32/6 95/34/6 96/35/6
f 41/36/4 40/37/4 96/38/4
f 41/36/7 96/38/7 97/39/7
f 42/40/8 41/41/8 97/42/8
f 42/40/9 97/42/9 98/43/9
f 17/44/10 42/40/10 98/43/10
f 17/44/11 98/43/11 32/45/11
f 94/46/12 31/47/12 32/45/12
f 94/46/13 32/45/13 98/43/13
f 93/48/14 94/46/14 98/43/14
f 93/48/15 98/43/15 97/42/15
f 92/49/16 93/50/16 97/39/16
f 92/49/17 97/39/17 96/38/17
f 91/51/18 92/52/18 96/35/18
f 91/51/19 96/35/19 95/34/19
f 15/53/20 91/54/20 95/31/20
f 15/53/21 95/31/21 16/30/21
f 90/55/22 30/56/22 31/47/22
f 90/55/23 31/47/23 94/46/23
f 89/57/24 90/55/24 94/46/24
f 89/57/25 94/46/25 93/48/25
f 88/58/26 89/59/26 93/50/26
f 88/58/27 93/50/27 92/49/27
f 87/60/28 88/61/28 92/52/28
f 87/60/29 92/52/29 91/51/29
f 14/62/30 87/63/30 91/54/30
f 14/62/31 91/54/31 15/53/31
f 86/64/32 29/65/32 30/56/32
f 86/64/32 30/56/32 90/55/32
f 85/66/33 86/64/33 90/55/33
f 85/66/34 90/55/34 89/57/34
f 84/67/35 85/68/35 89/59/35
f 84/67/36 89/59/36 88/58/36
f 83/69/37 84/70/37 88/61/37
f 83/69/38 88/61/38 87/60/38
f 13/71/39 83/72/39 87/73/39
f 13/71/40 87/73/40 14/74/40
f 82/43/41 28/45/41 29/75/41
f 82/43/42 29/75/42 86/76/42
f 81/42/43 82/43/43 86/76/43
f 81/42/44 86/76/44 85/77/44
f 80/38/45 81/39/45 85/78/45
f 80/38/46 85/78/46 84/79/46
f 79/34/47 80/35/47 84/80/47
f 79/34/48 84/80/48 83/81/48
f 12/82/49 79/83/49 83/84/49
f 12/82/50 83/84/50 13/85/50
f 78/46/51 27/47/51 28/45/51
f 78/46/52 28/45/52 82/43/52
f 77/48/53 78/46/53 82/43/53
f 77/48/54 82/43/54 81/42/54
f 76/49/55 77/50/55 81/39/55
f 76/49/56 81/39/56 80/38/56
f 75/51/57 76/52/57 80/35/57
f 75/51/58 80/35/58 79/34/58
f 11/86/59 75/87/59 79/83/59
f 11/86/60 79/83/60 12/82/60
f 74/55/61 26/56/61 27/47/61
f 74/55/61 27/47/61 78/46/61
f 73/57/62 74/55/62 78/46/62
f 73/57/63 78/46/63 77/48/63
f 72/58/64 73/59/64 77/50/64
f 72/58/65 77/50/65 76/49/65
f 71/60/66 72/61/66 76/52/66
f 71/60/67 76/52/67 75/51/67
f 10/88/68 71/89/68 75/87/68
f 10/88/68 75/87/68 11/86/68
f 70/90/69 25/91/69 26/56/69
f 70/90/69 26/56/69 74/55/69
f 69/92/70 70/90/70 74/55/70
f 69/92/71 74/55/71 73/57/71
f 68/93/72 69/94/72 73/59/72
f 68/93/73 73/59/73 72/58/73
f 67/69/74 68/70/74 72/61/74
f 67/69/75 72/61/75 71/60/75
f 9/95/73 67/96/73 71/89/73
f 9/95/73 71/89/73 10/88/73
f 66/97/76 24/98/76 25/91/76
f 66/97/77 25/91/77 70/90/77
f 65/99/78 66/97/78 70/90/78
f 65/99/79 70/90/79 69/92/79
f 64/58/80 65/100/80 69/94/80
f 64/58/81 69/94/81 68/93/81
f 63/60/82 64/101/82 68/70/82
f 63/60/83 68/70/83 67/102/83
f 8/103/84 63/104/84 67/105/84
f 8/103/85 67/105/85 9/106/85
f 62/46/86 23/47/86 24/98/86
f 62/46/87 24/98/87 66/97/87
f 61/48/88 62/46/88 66/97/88
f 61/48/89 66/97/89 65/99/89
f 60/49/90 61/50/90 65/100/90
f 60/49/91 65/100/91 64/58/91
f 59/51/92 60/52/92 64/101/92
f 59/51/93 64/101/93 63/60/93
f 7/107/94 59/108/94 63/104/94
f 7/107/95 63/104/95 8/103/95
f 58/43/96 22/45/96 23/47/96
f 58/43/97 23/47/97 62/46/97
f 57/42/98 58/43/98 62/46/98
f 57/42/98 62/46/98 61/48/98
f 56/38/99 57/39/99 61/50/99
f 56/38/100 61/50/100 60/49/100
f 55/34/101 56/35/101 60/52/101
f 55/34/102 60/52/102 59/51/102
f 6/109/103 55/110/103 59/108/103
f 6/109/104 59/108/104 7/107/104
f 54/40/105 21/44/105 22/45/105
f 54/40/106 22/45/106 58/43/106
f 53/41/107 54/40/107 58/43/107
f 53/41/108 58/43/108 57/42/108
f 52/37/109 53/36/109 57/39/109
f 52/37/110 57/39/110 56/38/110
f 51/33/111 52/32/111 56/35/111
f 51/33/112 56/35/112 55/34/112
f 5/111/110 51/112/110 55/110/110
f 5/111/110 55/110/110 6/109/110
f 50/97/113 20/98/113 21/91/113
f 50/97/113 21/91/113 54/90/113
f 49/99/114 50/97/114 54/90/114
f 49/99/115 54/90/115 53/92/115
f 48/58/116 49/100/116 53/94/116
f 48/58/117 53/94/117 52/93/117
f 47/60/118 48/101/118 52/70/118
f 47/60/118 52/70/118 51/102/118
f 4/113/119 47/114/119 51/115/119
f 4/113/119 51/115/119 5/116/119
f 46/46/120 19/47/120 20/98/120
f 46/46/121 20/98/121 50/97/121
f 45/48/122 46/46/122 50/97/122
f 45/48/122 50/97/122 49/99/122
f 44/49/123 45/50/123 49/100/123
f 44/49/121 49/100/121 48/58/121
f 43/51/124 44/52/124 48/101/124
f 43/51/124 48/101/124 47/60/124
f 3/117/121 43/118/121 47/114/121
f 3/117/121 47/114/121 4/113/121
f 38/43/125 18/45/125 19/47/125
f 38/43/125 19/47/125 46/46/125
f 37/42/126 38/43/126 46/46/126
f 37/42/126 46/46/126 45/48/126
f 36/38/127 37/39/127 45/50/127
f 36/38/128 45/50/128 44/49/128
f 35/34/129 36/35/129 44/52/129
f 35/34/130 44/52/130 43/51/130
f 2/119/131 35/120/131 43/118/131
f 2/119/132 43/118/132 3/117/132
f 42/40/133 17/44/133 18/45/133
f 42/40/134 18/45/134 38/43/134
f 41/41/135 42/40/135 38/43/135
f 41/41/136 38/43/136 37/42/136
f 40/37/134 41/36/134 37/39/134
f 40/37/137 37/39/137 36/38/137
f 39/33/138 40/32/138 36/35/138
f 39/33/139 36/35/139 35/34/139
f 1/29/134 39/28/134 35/121/134
f 1/29/134 35/121/134 2/122/134
