# Blender3D v248 OBJ File: p1001.blend
# www.blender3d.org
mtllib p1001.mtl
v 1.000002 0.999999 0.005295
v 1.000002 -0.999999 0.005295
v -1.000002 -0.999999 0.005295
v -1.000002 0.999999 0.005295
v 1.000002 0.999999 1.994713
v 1.000002 -0.999999 1.994713
v -1.000002 -0.999999 1.994713
v -1.000002 0.999999 1.994713
v 1.000002 -0.999999 1.472076
v 1.000002 0.999999 1.472076
v -1.000002 -0.999999 1.472076
v -1.000002 0.999999 1.472076
v 1.000002 -0.999999 0.502647
v 1.000002 -0.999999 1.710632
v 1.000002 0.999999 0.502647
v 1.000002 0.999999 1.710632
v -1.000002 -0.999999 0.502647
v -1.000002 -0.999999 1.710632
v -1.000002 0.999999 0.502647
v -1.000002 0.999999 1.710632
v 0.900002 -0.899999 1.555573
v 0.900002 -0.899999 1.627136
v 0.900002 0.899999 1.555573
v 0.900002 0.899999 1.627136
v -0.900002 -0.899999 1.555573
v -0.900002 -0.899999 1.627136
v -0.900002 0.899999 1.555573
v -0.900002 0.899999 1.627136
v 1.000002 0.333333 1.994713
v 1.000002 -0.333333 1.994713
v 0.333334 -0.999999 1.994713
v -0.333334 -0.999999 1.994713
v -1.000002 -0.333333 1.994713
v -1.000002 0.333333 1.994713
v 0.333334 0.999999 1.994713
v -0.333334 0.999999 1.994713
v 0.566668 0.566666 1.994713
v -0.566668 0.566666 1.994713
v 0.566668 -0.566666 1.994713
v -0.566668 -0.566666 1.994713
v 0.566668 0.566666 1.761971
v 0.566668 -0.566666 1.761971
v -0.566668 -0.566666 1.761971
v -0.566668 0.566666 1.761971
vt 0.007500 0.992500
vt 0.169167 0.992500
vt 0.007500 0.923244
vt 0.330833 0.992500
vt 0.492500 0.992500
vt 0.492500 0.923244
vt 0.121667 0.380897
vt 0.121667 0.124230
vt 0.378333 0.124230
vt 0.378333 0.380897
vt 0.429240 0.822914
vt 0.030410 0.822914
vt 0.030410 0.741010
vt 0.429240 0.741010
vt 0.075559 0.799357
vt 0.443709 0.799357
vt 0.443709 0.723754
vt 0.075559 0.723753
vt 0.492500 0.669167
vt 0.387417 0.612583
vt 0.492500 0.507500
vt 0.330833 0.507500
vt 0.112583 0.612583
vt 0.169167 0.507500
vt 0.007500 0.669167
vt 0.007500 0.507500
vt 0.492500 0.830833
vt 0.387417 0.887417
vt 0.112583 0.887417
vt 0.007500 0.830833
vt 0.468250 0.885442
vt 0.492500 0.865087
vt 0.007500 0.865087
vt 0.031750 0.885442
vt 0.479089 0.494104
vt 0.479089 0.476118
vt 0.029089 0.476118
vt 0.029089 0.494104
vt 0.468250 0.902889
vt 0.031750 0.902889
vt 0.029090 0.494104
vt 0.029090 0.476118
vt 0.492500 0.628750
vt 0.007500 0.628750
vn 1.000000 0.000000 0.000000
vn 0.000000 -1.000000 0.000000
vn -1.000000 0.000000 0.000000
vn 0.000000 1.000000 0.000000
vn 0.000000 0.000000 1.000000
vn 0.000000 0.640922 0.767606
vn 0.000000 0.640922 -0.767606
vn -0.640921 0.000000 -0.767607
vn -0.640921 0.000000 0.767607
vn 0.000000 -0.640922 -0.767606
vn 0.000000 -0.640922 0.767606
vn 0.640921 0.000000 -0.767607
vn 0.640921 0.000000 0.767607
vn 0.000000 0.000000 -1.000000
g Cube_Cube_None_QuartoPieces.png
usemtl None_QuartoPieces.png
s off
f 5/1/1 29/2/1 16/3/1
f 30/4/1 6/5/1 14/6/1
f 6/5/2 31/4/2 14/6/2
f 32/2/2 7/1/2 18/3/2
f 7/5/3 33/4/3 18/6/3
f 34/2/3 8/1/3 20/3/3
f 8/1/4 36/2/4 20/3/4
f 35/4/4 5/5/4 16/6/4
f 41/7/5 44/8/5 43/9/5
f 41/7/5 43/9/5 42/10/5
f 37/11/2 38/12/2 44/13/2
f 37/11/2 44/13/2 41/14/2
f 38/15/1 40/16/1 43/17/1
f 38/15/1 43/17/1 44/18/1
f 40/12/4 39/11/4 42/14/4
f 40/12/4 42/14/4 43/13/4
f 39/16/3 37/15/3 41/18/3
f 39/16/3 41/18/3 42/17/3
f 36/2/4 35/4/4 16/6/4
f 36/2/4 16/6/4 20/3/4
f 33/4/3 34/2/3 20/3/3
f 33/4/3 20/3/3 18/6/3
f 31/4/2 32/2/2 18/3/2
f 31/4/2 18/3/2 14/6/2
f 29/2/1 30/4/1 14/6/1
f 29/2/1 14/6/1 16/3/1
f 30/19/5 39/20/5 6/21/5
f 39/20/5 31/22/5 6/21/5
f 39/20/5 40/23/5 32/24/5
f 39/20/5 32/24/5 31/22/5
f 40/23/5 33/25/5 7/26/5
f 40/23/5 7/26/5 32/24/5
f 29/27/5 37/28/5 39/20/5
f 29/27/5 39/20/5 30/19/5
f 38/29/5 34/30/5 33/25/5
f 38/29/5 33/25/5 40/23/5
f 5/5/5 35/4/5 37/28/5
f 5/5/5 37/28/5 29/27/5
f 35/4/5 36/2/5 38/29/5
f 35/4/5 38/29/5 37/28/5
f 36/2/5 8/1/5 38/29/5
f 8/1/5 34/30/5 38/29/5
f 23/31/6 10/32/6 12/33/6
f 23/31/6 12/33/6 27/34/6
f 24/35/4 23/36/4 27/37/4
f 24/35/4 27/37/4 28/38/4
f 16/6/7 24/39/7 28/40/7
f 16/6/7 28/40/7 20/3/7
f 26/39/8 18/6/8 20/3/8
f 26/39/8 20/3/8 28/40/8
f 25/36/3 26/35/3 28/41/3
f 25/36/3 28/41/3 27/42/3
f 11/32/9 25/31/9 27/34/9
f 11/32/9 27/34/9 12/33/9
f 22/39/10 14/6/10 18/3/10
f 22/39/10 18/3/10 26/40/10
f 21/36/2 22/35/2 26/38/2
f 21/36/2 26/38/2 25/37/2
f 9/32/11 21/31/11 25/34/11
f 9/32/11 25/34/11 11/33/11
f 24/40/12 16/3/12 14/6/12
f 24/40/12 14/6/12 22/39/12
f 23/37/1 24/38/1 22/35/1
f 23/37/1 22/35/1 21/36/1
f 10/33/13 23/34/13 21/31/13
f 10/33/13 21/31/13 9/32/13
f 15/43/4 1/21/4 4/26/4
f 15/43/4 4/26/4 19/44/4
f 10/32/4 15/43/4 19/44/4
f 10/32/4 19/44/4 12/33/4
f 17/43/3 11/32/3 12/33/3
f 17/43/3 12/33/3 19/44/3
f 3/21/3 17/43/3 19/44/3
f 3/21/3 19/44/3 4/26/3
f 13/43/2 9/32/2 11/33/2
f 13/43/2 11/33/2 17/44/2
f 2/21/2 13/43/2 17/44/2
f 2/21/2 17/44/2 3/26/2
f 15/44/1 10/33/1 9/32/1
f 15/44/1 9/32/1 13/43/1
f 1/26/1 15/44/1 13/43/1
f 1/26/1 13/43/1 2/21/1
f 1/1/14 2/26/14 3/21/14
f 1/1/14 3/21/14 4/5/14
