# Blender3D v248 OBJ File: p1100.blend
# www.blender3d.org
mtllib p1100.mtl
v 0.707107 0.707107 0.000000
v 0.923879 0.382683 0.000000
v 1.000000 -0.000000 0.000000
v 0.923879 -0.382683 0.000000
v 0.707107 -0.707107 0.000000
v 0.382683 -0.923879 0.000000
v 0.000000 -1.000000 0.000000
v -0.382683 -0.923880 0.000000
v -0.707107 -0.707107 0.000000
v -0.923879 -0.382684 0.000000
v -1.000000 0.000000 0.000000
v -0.923879 0.382684 0.000000
v -0.707107 0.707107 0.000000
v -0.382683 0.923880 0.000000
v 0.000001 1.000000 0.000000
v 0.382684 0.923879 0.000000
v 0.707107 0.707106 2.000000
v 0.923880 0.382682 2.000000
v 1.000000 -0.000001 2.000000
v 0.923879 -0.382685 2.000000
v 0.707106 -0.707108 2.000000
v 0.382682 -0.923880 2.000000
v -0.000002 -1.000000 2.000000
v -0.382685 -0.923879 2.000000
v -0.707108 -0.707105 2.000000
v -0.923880 -0.382681 2.000000
v -1.000000 0.000003 2.000000
v -0.923878 0.382686 2.000000
v -0.707105 0.707109 2.000000
v -0.382681 0.923881 2.000000
v 0.000003 1.000000 2.000000
v 0.382687 0.923878 2.000000
v 0.000000 0.000000 0.000000
v 0.923880 0.382683 1.466522
v 0.831492 0.344415 1.556633
v 0.831492 0.344415 1.624908
v 0.923880 0.382683 1.715019
v 0.707107 0.707107 1.466522
v 0.636396 0.636396 1.556633
v 0.636396 0.636396 1.624908
v 0.707107 0.707106 1.715019
v 1.000000 -0.000000 1.466522
v 0.900000 -0.000000 1.556633
v 0.900000 -0.000001 1.624908
v 1.000000 -0.000001 1.715019
v 0.923879 -0.382684 1.466522
v 0.831491 -0.344416 1.556633
v 0.831491 -0.344416 1.624908
v 0.923879 -0.382684 1.715019
v 0.707107 -0.707107 1.466522
v 0.636396 -0.636396 1.556633
v 0.636396 -0.636397 1.624908
v 0.707106 -0.707108 1.715019
v 0.382683 -0.923880 1.466522
v 0.344415 -0.831492 1.556633
v 0.344414 -0.831492 1.624908
v 0.382682 -0.923880 1.715019
v -0.000000 -1.000000 1.466522
v -0.000001 -0.900000 1.556633
v -0.000001 -0.900000 1.624908
v -0.000002 -1.000000 1.715019
v -0.382684 -0.923879 1.466522
v -0.344416 -0.831491 1.556633
v -0.344416 -0.831491 1.624908
v -0.382685 -0.923879 1.715019
v -0.707107 -0.707107 1.466522
v -0.636397 -0.636396 1.556633
v -0.636397 -0.636395 1.624908
v -0.707108 -0.707106 1.715019
v -0.923880 -0.382683 1.466522
v -0.831492 -0.344414 1.556633
v -0.831492 -0.344414 1.624908
v -0.923880 -0.382682 1.715019
v -1.000000 0.000001 1.466522
v -0.900000 0.000001 1.556633
v -0.900000 0.000001 1.624908
v -1.000000 0.000002 1.715019
v -0.923879 0.382684 1.466522
v -0.831491 0.344416 1.556633
v -0.831491 0.344417 1.624908
v -0.923879 0.382685 1.715019
v -0.707106 0.707107 1.466522
v -0.636395 0.636397 1.556633
v -0.636395 0.636397 1.624908
v -0.707105 0.707108 1.715019
v -0.382683 0.923880 1.466522
v -0.344414 0.831492 1.556633
v -0.344413 0.831492 1.624908
v -0.382681 0.923880 1.715019
v 0.000001 1.000000 1.466522
v 0.000002 0.900000 1.556633
v 0.000002 0.900000 1.624908
v 0.000003 1.000000 1.715019
v 0.382685 0.923879 1.466522
v 0.344417 0.831491 1.556633
v 0.344417 0.831491 1.624908
v 0.382686 0.923878 1.715019
v 0.459620 0.459619 1.999992
v 0.600522 0.248744 1.999992
v 0.650000 -0.000001 1.999992
v 0.600521 -0.248745 1.999992
v 0.459619 -0.459620 1.999992
v 0.248743 -0.600522 1.999992
v -0.000001 -0.650000 1.999992
v -0.248746 -0.600521 1.999992
v -0.459620 -0.459618 1.999992
v -0.600522 -0.248743 1.999992
v -0.650000 0.000002 1.999992
v -0.600521 0.248746 1.999992
v -0.459618 0.459621 1.999992
v -0.248742 0.600522 1.999992
v 0.000002 0.650000 1.999992
v 0.248746 0.600521 1.999992
v 0.459620 0.459619 1.722519
v 0.248746 0.600521 1.722519
v 0.000002 0.650000 1.722519
v -0.248742 0.600522 1.722519
v -0.459618 0.459621 1.722519
v -0.600521 0.248746 1.722519
v -0.650000 0.000002 1.722519
v -0.600522 -0.248743 1.722519
v -0.459620 -0.459618 1.722519
v -0.248746 -0.600521 1.722519
v -0.000001 -0.650000 1.722519
v 0.248743 -0.600522 1.722519
v 0.459619 -0.459620 1.722519
v 0.600521 -0.248745 1.722519
v 0.650000 -0.000001 1.722519
v 0.600522 0.248744 1.722519
v -0.000000 -0.000000 1.722527
vt 0.748230 0.753296
vt 0.919703 0.924769
vt 0.972271 0.846097
vt 0.990730 0.753296
vt 0.972271 0.660495
vt 0.919703 0.581822
vt 0.841031 0.529255
vt 0.748230 0.510796
vt 0.655429 0.529255
vt 0.576757 0.581822
vt 0.524189 0.660495
vt 0.505730 0.753296
vt 0.524189 0.846097
vt 0.576757 0.924769
vt 0.655429 0.977337
vt 0.748230 0.995796
vt 0.841031 0.977337
vt 0.321739 0.421099
vt 0.251210 0.250829
vt 0.381530 0.381149
vt 0.251211 0.435129
vt 0.180682 0.421100
vt 0.120891 0.381149
vt 0.080939 0.321358
vt 0.066910 0.250829
vt 0.080939 0.180301
vt 0.120890 0.120509
vt 0.180681 0.080558
vt 0.251210 0.066529
vt 0.321738 0.080558
vt 0.381530 0.120509
vt 0.421481 0.180300
vt 0.435510 0.250829
vt 0.421481 0.321357
vt 0.381530 0.381148
vt 0.940397 0.941399
vt 0.897043 0.941399
vt 0.897042 0.842402
vt 0.940397 0.842402
vt 0.989996 0.941399
vt 0.989996 0.842402
vt 0.897042 0.941399
vt 0.832157 0.941399
vt 0.832157 0.842402
vt 0.755621 0.941399
vt 0.755621 0.842402
vt 0.679084 0.941399
vt 0.679084 0.842402
vt 0.614199 0.941399
vt 0.614199 0.842402
vt 0.570845 0.941399
vt 0.570845 0.842402
vt 0.511090 0.941399
vt 0.511090 0.842402
vt 0.614200 0.941399
vt 0.614200 0.842402
vt 0.679085 0.941399
vt 0.679085 0.842402
vt 0.755622 0.941399
vt 0.755622 0.842402
vt 0.832158 0.941399
vt 0.832158 0.842402
vt 0.846453 0.980188
vt 0.812968 0.899349
vt 0.865686 0.864123
vt 0.927558 0.925995
vt 0.750782 0.999219
vt 0.750782 0.911719
vt 0.655111 0.980189
vt 0.688596 0.899349
vt 0.574005 0.925996
vt 0.635877 0.864124
vt 0.519812 0.844890
vt 0.600651 0.811405
vt 0.500781 0.749219
vt 0.588281 0.749219
vt 0.519811 0.653548
vt 0.600651 0.687033
vt 0.574004 0.572442
vt 0.635876 0.634314
vt 0.655110 0.518249
vt 0.688595 0.599088
vt 0.750781 0.499219
vt 0.750781 0.586719
vt 0.846452 0.518249
vt 0.812967 0.599088
vt 0.927558 0.572442
vt 0.865686 0.634314
vt 0.981751 0.653547
vt 0.900912 0.687032
vt 1.000781 0.749218
vt 0.913281 0.749218
vt 0.981751 0.844889
vt 0.900912 0.811405
vt 0.861019 0.520278
vt 0.862338 0.981237
vt 0.750408 0.981611
vt 0.749092 0.520651
vt 0.509694 0.788583
vt 0.509694 0.871366
vt 0.619134 0.871366
vt 0.619134 0.788583
vt 0.017323 0.416744
vt 0.017323 0.458134
vt 0.126763 0.458134
vt 0.126763 0.416744
vt 0.509694 0.623020
vt 0.509694 0.705802
vt 0.619134 0.705802
vt 0.619134 0.623020
vt 0.509694 0.540238
vt 0.619134 0.540238
vt 0.748231 0.623020
vt 0.748231 0.540238
vt 0.748231 0.705802
vt 0.255860 0.458134
vt 0.255860 0.416744
vt 0.748231 0.871366
vt 0.748231 0.788583
vt 0.638478 0.981986
vt 0.637165 0.521024
vt 0.877327 0.623020
vt 0.877326 0.540238
vt 0.877327 0.705802
vt 0.384957 0.458134
vt 0.384956 0.416744
vt 0.877328 0.871366
vt 0.877327 0.788583
vt 0.526548 0.982361
vt 0.525238 0.521397
vt 0.986769 0.623020
vt 0.986768 0.540238
vt 0.986769 0.705802
vt 0.494399 0.458134
vt 0.494399 0.416744
vt 0.986770 0.871366
vt 0.986770 0.788583
vt 0.876554 0.985716
vt 0.875246 0.524750
vt 0.987174 0.524377
vt 0.988484 0.985341
vt 0.509690 0.540238
vt 0.509691 0.623020
vt 0.509691 0.705802
vt 0.017321 0.416744
vt 0.017322 0.458134
vt 0.509692 0.788583
vt 0.509693 0.871366
vt 0.865952 0.989071
vt 0.864647 0.528103
vt 0.976574 0.527730
vt 0.977882 0.988696
vt 0.754022 0.989446
vt 0.752720 0.528476
vt 0.642093 0.989820
vt 0.640792 0.528849
vt 0.986770 0.623020
vt 0.986770 0.540238
vt 0.986770 0.705802
vt 0.494400 0.458134
vt 0.494400 0.416744
vt 0.530163 0.990195
vt 0.528865 0.529221
vt 0.877328 0.623020
vt 0.877328 0.540238
vt 0.877328 0.705802
vt 0.384957 0.416744
vt 0.877328 0.788583
vt 0.986771 0.871366
vt 0.859307 0.990570
vt 0.858012 0.529594
vt 0.969939 0.529221
vt 0.971237 0.990195
vt 0.747377 0.990944
vt 0.746085 0.529967
vt 0.635448 0.991319
vt 0.634158 0.530340
vt 0.523518 0.991694
vt 0.522230 0.530713
vt 0.760033 0.986073
vt 0.758707 0.525120
vt 0.870635 0.524747
vt 0.871963 0.985698
vt 0.648103 0.986448
vt 0.646780 0.525493
vt 0.536173 0.986822
vt 0.534853 0.525866
vt 0.972947 0.519905
vt 0.974267 0.980862
vn 0.000000 0.000000 -1.000000
vn 0.000007 0.000010 1.000000
vn 0.000002 0.000012 1.000000
vn -0.000002 0.000012 1.000000
vn -0.000007 0.000010 1.000000
vn -0.000010 0.000007 1.000000
vn -0.000012 0.000002 1.000000
vn -0.000012 -0.000002 1.000000
vn -0.000010 -0.000007 1.000000
vn -0.000007 -0.000010 1.000000
vn -0.000002 -0.000012 1.000000
vn 0.000002 -0.000012 1.000000
vn 0.000007 -0.000010 1.000000
vn 0.000010 -0.000007 1.000000
vn 0.000012 -0.000002 1.000000
vn 0.000012 0.000002 1.000000
vn 0.000010 0.000007 1.000000
vn -0.831470 -0.555570 0.000000
vn -0.980786 -0.195089 0.000000
vn -0.980785 0.195092 -0.000000
vn -0.831469 0.555572 0.000000
vn -0.555569 0.831471 0.000000
vn -0.195089 0.980786 0.000000
vn 0.195093 0.980785 -0.000000
vn 0.555572 0.831468 0.000000
vn 0.831471 0.555568 0.000000
vn 0.980786 0.195088 0.000000
vn 0.980785 -0.195093 0.000000
vn 0.831468 -0.555573 0.000000
vn 0.555568 -0.831471 0.000000
vn 0.195087 -0.980786 0.000000
vn -0.195094 -0.980785 0.000000
vn -0.555572 -0.831469 0.000000
vn -0.000012 -0.000018 1.000000
vn -0.000004 -0.000022 1.000000
vn 0.000004 -0.000022 1.000000
vn 0.000012 -0.000018 1.000000
vn 0.000018 -0.000012 1.000000
vn 0.000022 -0.000004 1.000000
vn 0.000022 0.000004 1.000000
vn 0.000018 0.000012 1.000000
vn 0.000012 0.000018 1.000000
vn 0.000004 0.000022 1.000000
vn -0.000004 0.000022 1.000000
vn -0.000012 0.000018 1.000000
vn -0.000018 0.000012 1.000000
vn -0.000022 0.000004 1.000000
vn -0.000022 -0.000004 1.000000
vn -0.000018 -0.000012 1.000000
vn 0.555570 0.831469 0.000000
vn 0.555571 0.831469 -0.000000
vn 0.375878 0.562541 0.736385
vn 0.375879 0.562541 0.736385
vn 0.555571 0.831469 -0.000001
vn 0.375879 0.562541 -0.736385
vn 0.375879 0.562540 -0.736386
vn 0.555572 0.831469 -0.000000
vn 0.195094 0.980785 -0.000000
vn 0.131993 0.663562 -0.736386
vn 0.131992 0.663563 -0.736385
vn 0.195093 0.980785 -0.000001
vn 0.195092 0.980785 0.000001
vn 0.131992 0.663563 0.736385
vn 0.131992 0.663562 0.736385
vn 0.195092 0.980785 -0.000000
vn 0.195091 0.980785 0.000000
vn -0.195087 0.980786 -0.000000
vn -0.195088 0.980786 0.000000
vn -0.131989 0.663562 -0.736386
vn -0.131989 0.663563 -0.736385
vn -0.195088 0.980786 -0.000001
vn -0.195089 0.980786 0.000001
vn -0.131990 0.663563 0.736385
vn -0.131990 0.663562 0.736386
vn -0.195089 0.980785 -0.000000
vn -0.195090 0.980785 0.000000
vn -0.555568 0.831471 -0.000000
vn -0.375876 0.562542 -0.736386
vn -0.375877 0.562542 -0.736385
vn -0.555569 0.831470 0.000001
vn -0.375877 0.562542 0.736385
vn -0.375877 0.562541 0.736386
vn -0.555569 0.831470 -0.000000
vn -0.555570 0.831470 0.000000
vn -0.831468 0.555573 -0.000000
vn -0.831468 0.555572 0.000001
vn -0.562540 0.375879 -0.736386
vn -0.562540 0.375879 -0.736385
vn -0.831469 0.555572 -0.000001
vn -0.831469 0.555571 0.000002
vn -0.562541 0.375879 0.736385
vn -0.562540 0.375878 0.736386
vn -0.831469 0.555571 -0.000000
vn -0.831469 0.555570 0.000000
vn -0.980785 0.195093 -0.000000
vn -0.663562 0.131992 -0.736386
vn -0.663563 0.131992 -0.736385
vn -0.980785 0.195092 -0.000001
vn -0.980785 0.195092 0.000001
vn -0.663563 0.131992 0.736385
vn -0.663562 0.131991 0.736386
vn -0.980785 0.195091 -0.000000
vn -0.980785 0.195090 0.000000
vn -0.980786 -0.195088 -0.000000
vn -0.663562 -0.131989 -0.736386
vn -0.663563 -0.131990 -0.736385
vn -0.980786 -0.195089 -0.000003
vn -0.980785 -0.195090 0.000001
vn -0.663563 -0.131990 0.736385
vn -0.663562 -0.131990 0.736386
vn -0.980785 -0.195090 -0.000000
vn -0.831471 -0.555569 -0.000000
vn -0.562541 -0.375877 -0.736386
vn -0.562542 -0.375878 -0.736385
vn -0.831470 -0.555569 -0.000002
vn -0.562541 -0.375877 0.736385
vn -0.562541 -0.375877 0.736386
vn -0.555572 -0.831468 -0.000000
vn -0.555572 -0.831469 0.000001
vn -0.375879 -0.562540 -0.736386
vn -0.375879 -0.562541 -0.736385
vn -0.555571 -0.831469 -0.000001
vn -0.555571 -0.831469 0.000000
vn -0.375879 -0.562541 0.736385
vn -0.375878 -0.562540 0.736386
vn -0.555570 -0.831469 -0.000000
vn -0.555570 -0.831470 0.000000
vn -0.195092 -0.980785 -0.000000
vn -0.195092 -0.980785 0.000001
vn -0.131992 -0.663562 -0.736386
vn -0.131992 -0.663562 -0.736385
vn -0.195092 -0.980785 -0.000001
vn -0.195091 -0.980785 0.000001
vn -0.131991 -0.663563 0.736385
vn -0.131991 -0.663562 0.736386
vn -0.195091 -0.980785 -0.000000
vn -0.195090 -0.980785 0.000000
vn 0.195088 -0.980786 -0.000001
vn 0.195089 -0.980785 0.000000
vn 0.131990 -0.663563 -0.736385
vn 0.195089 -0.980785 -0.000002
vn 0.195090 -0.980785 0.000001
vn 0.131990 -0.663563 0.736385
vn 0.131991 -0.663562 0.736386
vn 0.195090 -0.980785 -0.000000
vn 0.195091 -0.980785 0.000000
vn 0.555569 -0.831471 -0.000000
vn 0.555569 -0.831470 -0.000000
vn 0.375877 -0.562541 -0.736386
vn 0.375878 -0.562542 -0.736385
vn 0.555569 -0.831470 -0.000001
vn 0.555570 -0.831470 0.000000
vn 0.375878 -0.562542 0.736385
vn 0.375878 -0.562541 0.736386
vn 0.831469 -0.555571 -0.000000
vn 0.562540 -0.375878 -0.736386
vn 0.562541 -0.375879 -0.736385
vn 0.831469 -0.555571 -0.000001
vn 0.831469 -0.555571 0.000001
vn 0.562541 -0.375878 0.736385
vn 0.831470 -0.555570 -0.000000
vn 0.980785 -0.195092 -0.000000
vn 0.980785 -0.195091 0.000000
vn 0.663562 -0.131991 -0.736385
vn 0.980785 -0.195091 -0.000001
vn 0.663562 -0.131991 0.736385
vn 0.980785 0.195089 -0.000000
vn 0.663563 0.131990 -0.736385
vn 0.980785 0.195089 -0.000002
vn 0.980785 0.195090 0.000001
vn 0.663563 0.131991 0.736385
vn 0.663562 0.131991 0.736385
vn 0.980785 0.195090 -0.000000
vn 0.980785 0.195091 0.000000
vn 0.831470 0.555569 -0.000000
vn 0.831470 0.555570 0.000000
vn 0.562541 0.375877 -0.736385
vn 0.562542 0.375878 -0.736385
vn 0.831470 0.555570 -0.000001
vn 0.562542 0.375878 0.736385
vn 0.562541 0.375878 0.736385
g Cube_Cube_None_QuartoPieces.png
usemtl None_QuartoPieces.png
s off
f 33/1/1 1/2/1 2/3/1
f 33/1/1 2/3/1 3/4/1
f 33/1/1 3/4/1 4/5/1
f 33/1/1 4/5/1 5/6/1
f 33/1/1 5/6/1 6/7/1
f 33/1/1 6/7/1 7/8/1
f 33/1/1 7/8/1 8/9/1
f 33/1/1 8/9/1 9/10/1
f 33/1/1 9/10/1 10/11/1
f 33/1/1 10/11/1 11/12/1
f 33/1/1 11/12/1 12/13/1
f 33/1/1 12/13/1 13/14/1
f 33/1/1 13/14/1 14/15/1
f 33/1/1 14/15/1 15/16/1
f 33/1/1 15/16/1 16/17/1
f 16/17/1 1/2/1 33/1/1
f 115/18/2 130/19/2 114/20/2
f 116/21/3 130/19/3 115/18/3
f 117/22/4 130/19/4 116/21/4
f 118/23/5 130/19/5 117/22/5
f 119/24/6 130/19/6 118/23/6
f 120/25/7 130/19/7 119/24/7
f 121/26/8 130/19/8 120/25/8
f 122/27/9 130/19/9 121/26/9
f 123/28/10 130/19/10 122/27/10
f 124/29/11 130/19/11 123/28/11
f 125/30/12 130/19/12 124/29/12
f 126/31/13 130/19/13 125/30/13
f 127/32/14 130/19/14 126/31/14
f 128/33/15 130/19/15 127/32/15
f 129/34/16 130/19/16 128/33/16
f 114/35/17 130/19/17 129/34/17
f 99/36/18 98/37/18 114/38/18
f 99/36/18 114/38/18 129/39/18
f 100/40/19 99/36/19 129/39/19
f 100/40/19 129/39/19 128/41/19
f 101/36/20 100/40/20 128/41/20
f 101/36/20 128/41/20 127/39/20
f 102/42/21 101/36/21 127/39/21
f 102/42/21 127/39/21 126/38/21
f 103/43/22 102/42/22 126/38/22
f 103/43/22 126/38/22 125/44/22
f 104/45/23 103/43/23 125/44/23
f 104/45/23 125/44/23 124/46/23
f 105/47/24 104/45/24 124/46/24
f 105/47/24 124/46/24 123/48/24
f 106/49/25 105/47/25 123/48/25
f 106/49/25 123/48/25 122/50/25
f 107/51/26 106/49/26 122/50/26
f 107/51/26 122/50/26 121/52/26
f 108/53/27 107/51/27 121/52/27
f 108/53/27 121/52/27 120/54/27
f 109/51/28 108/53/28 120/54/28
f 109/51/28 120/54/28 119/52/28
f 110/55/29 109/51/29 119/52/29
f 110/55/29 119/52/29 118/56/29
f 111/57/30 110/55/30 118/56/30
f 111/57/30 118/56/30 117/58/30
f 112/59/31 111/57/31 117/58/31
f 112/59/31 117/58/31 116/60/31
f 113/61/32 112/59/32 116/60/32
f 113/61/32 116/60/32 115/62/32
f 98/37/33 113/61/33 115/62/33
f 98/37/33 115/62/33 114/38/33
f 32/63/34 113/64/34 98/65/34
f 32/63/34 98/65/34 17/66/34
f 31/67/35 112/68/35 113/64/35
f 31/67/35 113/64/35 32/63/35
f 30/69/36 111/70/36 112/68/36
f 30/69/36 112/68/36 31/67/36
f 29/71/37 110/72/37 111/70/37
f 29/71/37 111/70/37 30/69/37
f 28/73/38 109/74/38 110/72/38
f 28/73/38 110/72/38 29/71/38
f 27/75/39 108/76/39 109/74/39
f 27/75/39 109/74/39 28/73/39
f 26/77/40 107/78/40 108/76/40
f 26/77/40 108/76/40 27/75/40
f 25/79/41 106/80/41 107/78/41
f 25/79/41 107/78/41 26/77/41
f 24/81/42 105/82/42 106/80/42
f 24/81/42 106/80/42 25/79/42
f 23/83/43 104/84/43 105/82/43
f 23/83/43 105/82/43 24/81/43
f 22/85/44 103/86/44 104/84/44
f 22/85/44 104/84/44 23/83/44
f 21/87/45 102/88/45 103/86/45
f 21/87/45 103/86/45 22/85/45
f 20/89/46 101/90/46 102/88/46
f 20/89/46 102/88/46 21/87/46
f 19/91/47 100/92/47 101/90/47
f 19/91/47 101/90/47 20/89/47
f 18/93/48 99/94/48 100/92/48
f 18/93/48 100/92/48 19/91/48
f 17/66/49 98/65/49 99/94/49
f 17/66/49 99/94/49 18/93/49
f 38/95/50 1/96/50 16/97/50
f 38/95/51 16/97/51 94/98/51
f 39/99/52 38/100/52 94/101/52
f 39/99/53 94/101/53 95/102/53
f 40/103/51 39/104/51 95/105/51
f 40/103/54 95/105/54 96/106/54
f 41/107/55 40/108/55 96/109/55
f 41/107/56 96/109/56 97/110/56
f 17/111/57 41/107/57 97/110/57
f 17/111/25 97/110/25 32/112/25
f 93/113/58 31/114/58 32/112/58
f 93/113/24 32/112/24 97/110/24
f 92/115/59 93/113/59 97/110/59
f 92/115/60 97/110/60 96/109/60
f 91/116/61 92/117/61 96/106/61
f 91/116/62 96/106/62 95/105/62
f 90/118/63 91/119/63 95/102/63
f 90/118/64 95/102/64 94/101/64
f 15/120/65 90/121/65 94/98/65
f 15/120/66 94/98/66 16/97/66
f 89/122/67 30/123/67 31/114/67
f 89/122/68 31/114/68 93/113/68
f 88/124/69 89/122/69 93/113/69
f 88/124/70 93/113/70 92/115/70
f 87/125/71 88/126/71 92/117/71
f 87/125/72 92/117/72 91/116/72
f 86/127/73 87/128/73 91/119/73
f 86/127/74 91/119/74 90/118/74
f 14/129/75 86/130/75 90/121/75
f 14/129/76 90/121/76 15/120/76
f 85/131/77 29/132/77 30/123/77
f 85/131/77 30/123/77 89/122/77
f 84/133/78 85/131/78 89/122/78
f 84/133/79 89/122/79 88/124/79
f 83/134/22 84/135/22 88/126/22
f 83/134/80 88/126/80 87/125/80
f 82/136/81 83/137/81 87/128/81
f 82/136/82 87/128/82 86/127/82
f 13/138/83 82/139/83 86/140/83
f 13/138/84 86/140/84 14/141/84
f 81/110/85 28/112/85 29/142/85
f 81/110/86 29/142/86 85/143/86
f 80/109/87 81/110/87 85/143/87
f 80/109/88 85/143/88 84/144/88
f 79/105/89 80/106/89 84/145/89
f 79/105/90 84/145/90 83/146/90
f 78/101/91 79/102/91 83/147/91
f 78/101/92 83/147/92 82/148/92
f 12/149/93 78/150/93 82/151/93
f 12/149/94 82/151/94 13/152/94
f 77/113/95 27/114/95 28/112/95
f 77/113/20 28/112/20 81/110/20
f 76/115/96 77/113/96 81/110/96
f 76/115/97 81/110/97 80/109/97
f 75/116/98 76/117/98 80/106/98
f 75/116/99 80/106/99 79/105/99
f 74/118/100 75/119/100 79/102/100
f 74/118/101 79/102/101 78/101/101
f 11/153/102 74/154/102 78/150/102
f 11/153/103 78/150/103 12/149/103
f 73/122/104 26/123/104 27/114/104
f 73/122/104 27/114/104 77/113/104
f 72/124/105 73/122/105 77/113/105
f 72/124/106 77/113/106 76/115/106
f 71/125/107 72/126/107 76/117/107
f 71/125/108 76/117/108 75/116/108
f 70/127/109 71/128/109 75/119/109
f 70/127/110 75/119/110 74/118/110
f 10/155/111 70/156/111 74/154/111
f 10/155/111 74/154/111 11/153/111
f 69/157/112 25/158/112 26/123/112
f 69/157/112 26/123/112 73/122/112
f 68/159/113 69/157/113 73/122/113
f 68/159/114 73/122/114 72/124/114
f 67/160/115 68/161/115 72/126/115
f 67/160/18 72/126/18 71/125/18
f 66/136/116 67/137/116 71/128/116
f 66/136/117 71/128/117 70/127/117
f 9/162/18 66/163/18 70/156/18
f 9/162/18 70/156/18 10/155/18
f 65/164/118 24/165/118 25/158/118
f 65/164/119 25/158/119 69/157/119
f 64/166/120 65/164/120 69/157/120
f 64/166/121 69/157/121 68/159/121
f 63/125/122 64/167/122 68/161/122
f 63/125/123 68/161/123 67/160/123
f 62/127/124 63/168/124 67/137/124
f 62/127/125 67/137/125 66/169/125
f 8/170/126 62/171/126 66/172/126
f 8/170/127 66/172/127 9/173/127
f 61/113/128 23/114/128 24/165/128
f 61/113/129 24/165/129 65/164/129
f 60/115/130 61/113/130 65/164/130
f 60/115/131 65/164/131 64/166/131
f 59/116/132 60/117/132 64/167/132
f 59/116/133 64/167/133 63/125/133
f 58/118/134 59/119/134 63/168/134
f 58/118/135 63/168/135 62/127/135
f 7/174/136 58/175/136 62/171/136
f 7/174/137 62/171/137 8/170/137
f 57/110/138 22/112/138 23/114/138
f 57/110/139 23/114/139 61/113/139
f 56/109/140 57/110/140 61/113/140
f 56/109/140 61/113/140 60/115/140
f 55/105/141 56/106/141 60/117/141
f 55/105/142 60/117/142 59/116/142
f 54/101/143 55/102/143 59/119/143
f 54/101/144 59/119/144 58/118/144
f 6/176/145 54/177/145 58/175/145
f 6/176/146 58/175/146 7/174/146
f 53/107/147 21/111/147 22/112/147
f 53/107/148 22/112/148 57/110/148
f 52/108/149 53/107/149 57/110/149
f 52/108/150 57/110/150 56/109/150
f 51/104/151 52/103/151 56/106/151
f 51/104/152 56/106/152 55/105/152
f 50/100/153 51/99/153 55/102/153
f 50/100/154 55/102/154 54/101/154
f 5/178/152 50/179/152 54/177/152
f 5/178/152 54/177/152 6/176/152
f 49/164/155 20/165/155 21/158/155
f 49/164/155 21/158/155 53/157/155
f 48/166/156 49/164/156 53/157/156
f 48/166/157 53/157/157 52/159/157
f 47/125/158 48/167/158 52/161/158
f 47/125/159 52/161/159 51/160/159
f 46/127/160 47/168/160 51/137/160
f 46/127/160 51/137/160 50/169/160
f 4/180/161 46/181/161 50/182/161
f 4/180/161 50/182/161 5/183/161
f 45/113/162 19/114/162 20/165/162
f 45/113/163 20/165/163 49/164/163
f 44/115/164 45/113/164 49/164/164
f 44/115/164 49/164/164 48/166/164
f 43/116/165 44/117/165 48/167/165
f 43/116/163 48/167/163 47/125/163
f 42/118/166 43/119/166 47/168/166
f 42/118/166 47/168/166 46/127/166
f 3/184/163 42/185/163 46/181/163
f 3/184/163 46/181/163 4/180/163
f 37/110/167 18/112/167 19/114/167
f 37/110/167 19/114/167 45/113/167
f 36/109/168 37/110/168 45/113/168
f 36/109/168 45/113/168 44/115/168
f 35/105/169 36/106/169 44/117/169
f 35/105/170 44/117/170 43/116/170
f 34/101/171 35/102/171 43/119/171
f 34/101/172 43/119/172 42/118/172
f 2/186/173 34/187/173 42/185/173
f 2/186/174 42/185/174 3/184/174
f 41/107/175 17/111/175 18/112/175
f 41/107/176 18/112/176 37/110/176
f 40/108/177 41/107/177 37/110/177
f 40/108/178 37/110/178 36/109/178
f 39/104/176 40/103/176 36/106/176
f 39/104/179 36/106/179 35/105/179
f 38/100/180 39/99/180 35/102/180
f 38/100/181 35/102/181 34/101/181
f 1/96/176 38/95/176 34/188/176
f 1/96/176 34/188/176 2/189/176
