# Blender3D v248 OBJ File: p1110.blend
# www.blender3d.org
mtllib p1110.mtl
v 0.707107 0.707107 0.000000
v 0.923879 0.382683 0.000000
v 1.000000 -0.000000 0.000000
v 0.923879 -0.382683 0.000000
v 0.707107 -0.707107 0.000000
v 0.382683 -0.923879 0.000000
v 0.000000 -1.000000 0.000000
v -0.382683 -0.923880 0.000000
v -0.707107 -0.707107 0.000000
v -0.923879 -0.382684 0.000000
v -1.000000 0.000000 0.000000
v -0.923879 0.382684 0.000000
v -0.707107 0.707107 0.000000
v -0.382683 0.923880 0.000000
v 0.000001 1.000000 0.000000
v 0.382684 0.923879 0.000000
v 0.707107 0.707106 4.000000
v 0.923880 0.382682 4.000000
v 1.000000 -0.000001 4.000000
v 0.923879 -0.382685 4.000000
v 0.707106 -0.707108 4.000000
v 0.382682 -0.923880 4.000000
v -0.000002 -1.000000 4.000000
v -0.382685 -0.923879 4.000000
v -0.707108 -0.707105 4.000000
v -0.923880 -0.382681 4.000000
v -1.000000 0.000003 4.000000
v -0.923878 0.382686 4.000000
v -0.707105 0.707109 4.000000
v -0.382681 0.923881 4.000000
v 0.000003 1.000000 4.000000
v 0.382687 0.923878 4.000000
v 0.000000 0.000000 0.000000
v 0.923880 0.382683 3.466515
v 0.831492 0.344415 3.556633
v 0.831492 0.344415 3.624908
v 0.923880 0.382683 3.715012
v 0.707107 0.707107 3.466515
v 0.636396 0.636396 3.556633
v 0.636396 0.636396 3.624908
v 0.707107 0.707106 3.715012
v 1.000000 -0.000000 3.466515
v 0.900000 -0.000000 3.556633
v 0.900000 -0.000001 3.624908
v 1.000000 -0.000001 3.715012
v 0.923879 -0.382684 3.466515
v 0.831491 -0.344416 3.556633
v 0.831491 -0.344416 3.624908
v 0.923879 -0.382684 3.715012
v 0.707107 -0.707107 3.466515
v 0.636396 -0.636396 3.556633
v 0.636396 -0.636397 3.624908
v 0.707106 -0.707108 3.715012
v 0.382683 -0.923880 3.466515
v 0.344415 -0.831492 3.556633
v 0.344414 -0.831492 3.624908
v 0.382682 -0.923880 3.715012
v -0.000000 -1.000000 3.466515
v -0.000001 -0.900000 3.556633
v -0.000001 -0.900000 3.624908
v -0.000002 -1.000000 3.715012
v -0.382684 -0.923879 3.466515
v -0.344416 -0.831491 3.556633
v -0.344416 -0.831491 3.624908
v -0.382685 -0.923879 3.715012
v -0.707107 -0.707107 3.466515
v -0.636397 -0.636396 3.556633
v -0.636397 -0.636395 3.624908
v -0.707108 -0.707106 3.715012
v -0.923880 -0.382683 3.466515
v -0.831492 -0.344414 3.556633
v -0.831492 -0.344414 3.624908
v -0.923880 -0.382682 3.715012
v -1.000000 0.000001 3.466515
v -0.900000 0.000001 3.556633
v -0.900000 0.000001 3.624908
v -1.000000 0.000002 3.715012
v -0.923879 0.382684 3.466515
v -0.831491 0.344416 3.556633
v -0.831491 0.344417 3.624908
v -0.923879 0.382685 3.715012
v -0.707106 0.707107 3.466515
v -0.636395 0.636397 3.556633
v -0.636395 0.636397 3.624908
v -0.707105 0.707108 3.715012
v -0.382683 0.923880 3.466515
v -0.344414 0.831492 3.556633
v -0.344413 0.831492 3.624908
v -0.382681 0.923880 3.715012
v 0.000001 1.000000 3.466515
v 0.000002 0.900000 3.556633
v 0.000002 0.900000 3.624908
v 0.000003 1.000000 3.715012
v 0.382685 0.923879 3.466515
v 0.344417 0.831491 3.556633
v 0.344417 0.831491 3.624908
v 0.382686 0.923878 3.715012
v 0.459620 0.459619 3.999992
v 0.600522 0.248744 3.999992
v 0.650000 -0.000001 3.999992
v 0.600521 -0.248745 3.999992
v 0.459619 -0.459620 3.999992
v 0.248743 -0.600522 3.999992
v -0.000001 -0.650000 3.999992
v -0.248746 -0.600521 3.999992
v -0.459620 -0.459618 3.999992
v -0.600522 -0.248743 3.999992
v -0.650000 0.000002 3.999992
v -0.600521 0.248746 3.999992
v -0.459618 0.459621 3.999992
v -0.248742 0.600522 3.999992
v 0.000002 0.650000 3.999992
v 0.248746 0.600521 3.999992
v 0.459620 0.459619 3.722519
v 0.248746 0.600521 3.722519
v 0.000002 0.650000 3.722519
v -0.248742 0.600522 3.722519
v -0.459618 0.459621 3.722519
v -0.600521 0.248746 3.722519
v -0.650000 0.000002 3.722519
v -0.600522 -0.248743 3.722519
v -0.459620 -0.459618 3.722519
v -0.248746 -0.600521 3.722519
v -0.000001 -0.650000 3.722519
v 0.248743 -0.600522 3.722519
v 0.459619 -0.459620 3.722519
v 0.600521 -0.248745 3.722519
v 0.650000 -0.000001 3.722519
v 0.600522 0.248744 3.722519
v -0.000000 -0.000000 3.722527
v 0.707107 -0.707107 3.466515
v 0.707107 -0.707107 0.000000
v 0.923879 0.382683 1.768700
v 0.707107 0.707107 1.768700
v 1.000000 -0.000000 1.768700
v 0.923879 -0.382684 1.768700
v 0.707107 -0.707107 1.768700
v 0.382683 -0.923880 1.768700
v -0.000000 -1.000000 1.768700
v -0.382683 -0.923880 1.768700
v -0.707107 -0.707107 1.768700
v -0.923880 -0.382683 1.768700
v -1.000000 0.000000 1.768700
v -0.923879 0.382684 1.768700
v -0.707106 0.707107 1.768700
v -0.382683 0.923880 1.768700
v 0.000001 1.000000 1.768700
v 0.382684 0.923879 1.768700
v 0.707107 -0.707107 1.768700
vt 0.748230 0.753296
vt 0.919703 0.924769
vt 0.972271 0.846097
vt 0.990730 0.753296
vt 0.972271 0.660495
vt 0.919703 0.581822
vt 0.841031 0.529255
vt 0.748230 0.510796
vt 0.655429 0.529255
vt 0.576757 0.581822
vt 0.524189 0.660495
vt 0.505730 0.753296
vt 0.524189 0.846097
vt 0.576757 0.924769
vt 0.655429 0.977337
vt 0.748230 0.995796
vt 0.841031 0.977337
vt 0.321739 0.423484
vt 0.251210 0.253213
vt 0.381530 0.383533
vt 0.251211 0.437513
vt 0.180682 0.423484
vt 0.120891 0.383533
vt 0.080939 0.323742
vt 0.066910 0.253213
vt 0.080939 0.182685
vt 0.120890 0.122894
vt 0.180681 0.082942
vt 0.120890 0.122893
vt 0.251210 0.068913
vt 0.321738 0.082942
vt 0.381530 0.122893
vt 0.421481 0.182684
vt 0.435510 0.253213
vt 0.421481 0.323741
vt 0.862899 0.504176
vt 0.863558 0.987340
vt 0.751629 0.987715
vt 0.750971 0.504550
vt 0.861019 0.505630
vt 0.861678 0.983912
vt 0.749750 0.984286
vt 0.749092 0.506003
vt 0.637822 0.984660
vt 0.637165 0.506375
vt 0.639699 0.988090
vt 0.639042 0.504923
vt 0.525893 0.985033
vt 0.525238 0.506748
vt 0.527769 0.988464
vt 0.527114 0.505297
vt 0.875900 0.988388
vt 0.875246 0.510101
vt 0.987174 0.509728
vt 0.987829 0.988014
vt 0.877775 0.991819
vt 0.877121 0.508651
vt 0.989050 0.508277
vt 0.989705 0.991445
vt 0.865300 0.991741
vt 0.864647 0.513454
vt 0.976574 0.513082
vt 0.977228 0.991368
vt 0.867173 0.995174
vt 0.866520 0.512005
vt 0.978449 0.511631
vt 0.979103 0.994800
vt 0.753371 0.992115
vt 0.752720 0.513827
vt 0.865300 0.991742
vt 0.755243 0.995549
vt 0.754592 0.512379
vt 0.641442 0.992489
vt 0.640792 0.514200
vt 0.643313 0.995924
vt 0.642663 0.512753
vt 0.529514 0.992863
vt 0.528865 0.514573
vt 0.531383 0.996298
vt 0.530735 0.513127
vt 0.858660 0.993237
vt 0.858012 0.514946
vt 0.969939 0.514573
vt 0.970588 0.992863
vt 0.860528 0.996673
vt 0.859880 0.513500
vt 0.971809 0.513127
vt 0.972458 0.996298
vt 0.746731 0.993610
vt 0.746085 0.515319
vt 0.748598 0.997048
vt 0.747952 0.513874
vt 0.634803 0.993984
vt 0.634158 0.515691
vt 0.636668 0.997423
vt 0.636023 0.514248
vt 0.522874 0.994358
vt 0.522230 0.516064
vt 0.524738 0.997798
vt 0.524095 0.514622
vt 0.759370 0.988751
vt 0.758707 0.510472
vt 0.870635 0.510099
vt 0.871299 0.988377
vt 0.761254 0.992177
vt 0.760591 0.509015
vt 0.872519 0.508641
vt 0.873183 0.991802
vt 0.647442 0.989125
vt 0.646780 0.510845
vt 0.649324 0.992551
vt 0.648662 0.509389
vt 0.535513 0.989499
vt 0.534853 0.511217
vt 0.537394 0.992926
vt 0.536734 0.509763
vt 0.972947 0.505257
vt 0.973607 0.983538
vt 0.974828 0.503802
vt 0.975488 0.986965
vt 0.940397 0.941399
vt 0.897043 0.941399
vt 0.897042 0.842402
vt 0.940397 0.842402
vt 0.989996 0.941399
vt 0.989996 0.842402
vt 0.897042 0.941399
vt 0.832157 0.941399
vt 0.832157 0.842402
vt 0.755621 0.941399
vt 0.755621 0.842402
vt 0.679084 0.941399
vt 0.679084 0.842402
vt 0.614199 0.941399
vt 0.614199 0.842402
vt 0.570845 0.941399
vt 0.570845 0.842402
vt 0.511090 0.941399
vt 0.511090 0.842402
vt 0.614200 0.941399
vt 0.614200 0.842402
vt 0.679085 0.941399
vt 0.679085 0.842402
vt 0.755622 0.941399
vt 0.755622 0.842402
vt 0.832158 0.941399
vt 0.832158 0.842402
vt 0.846453 0.980188
vt 0.812968 0.899349
vt 0.865686 0.864123
vt 0.927558 0.925995
vt 0.750782 0.999219
vt 0.750782 0.911719
vt 0.655111 0.980189
vt 0.688596 0.899349
vt 0.574005 0.925996
vt 0.635877 0.864124
vt 0.519812 0.844890
vt 0.600651 0.811405
vt 0.500781 0.749219
vt 0.588281 0.749219
vt 0.519811 0.653548
vt 0.600651 0.687033
vt 0.574004 0.572442
vt 0.635876 0.634314
vt 0.655110 0.518249
vt 0.688595 0.599088
vt 0.750781 0.499219
vt 0.750781 0.586719
vt 0.846452 0.518249
vt 0.812967 0.599088
vt 0.927558 0.572442
vt 0.865686 0.634314
vt 0.981751 0.653547
vt 0.900912 0.687032
vt 1.000781 0.749218
vt 0.913281 0.749218
vt 0.981751 0.844889
vt 0.900912 0.811405
vt 0.509694 0.788583
vt 0.509694 0.871366
vt 0.619134 0.871366
vt 0.619134 0.788583
vt 0.017323 0.416744
vt 0.017323 0.458134
vt 0.126763 0.458134
vt 0.126763 0.416744
vt 0.509694 0.623020
vt 0.509694 0.705802
vt 0.619134 0.705802
vt 0.619134 0.623020
vt 0.509694 0.540238
vt 0.619134 0.540238
vt 0.748231 0.623020
vt 0.748231 0.540238
vt 0.748231 0.705802
vt 0.255860 0.458134
vt 0.255860 0.416744
vt 0.748231 0.871366
vt 0.748231 0.788583
vt 0.877327 0.623020
vt 0.877326 0.540238
vt 0.877327 0.705802
vt 0.384957 0.458134
vt 0.384956 0.416744
vt 0.877328 0.871366
vt 0.877327 0.788583
vt 0.986769 0.623020
vt 0.986768 0.540238
vt 0.986769 0.705802
vt 0.494399 0.458134
vt 0.494399 0.416744
vt 0.986770 0.871366
vt 0.986770 0.788583
vt 0.509690 0.540238
vt 0.509691 0.623020
vt 0.509691 0.705802
vt 0.017321 0.416744
vt 0.017322 0.458134
vt 0.509692 0.788583
vt 0.509693 0.871366
vt 0.986770 0.623020
vt 0.986770 0.540238
vt 0.986770 0.705802
vt 0.494400 0.458134
vt 0.494400 0.416744
vt 0.877328 0.623020
vt 0.877328 0.540238
vt 0.877328 0.705802
vt 0.384957 0.416744
vt 0.877328 0.788583
vt 0.986771 0.871366
vn 0.000000 0.000000 -1.000000
vn 0.000007 0.000010 1.000000
vn 0.000002 0.000012 1.000000
vn -0.000002 0.000012 1.000000
vn -0.000007 0.000010 1.000000
vn -0.000010 0.000007 1.000000
vn -0.000012 0.000002 1.000000
vn -0.000012 -0.000002 1.000000
vn -0.000010 -0.000007 1.000000
vn -0.000007 -0.000010 1.000000
vn -0.000002 -0.000012 1.000000
vn 0.000002 -0.000012 1.000000
vn 0.000007 -0.000010 1.000000
vn 0.000010 -0.000007 1.000000
vn 0.000012 -0.000002 1.000000
vn 0.000012 0.000002 1.000000
vn 0.000010 0.000007 1.000000
vn 0.555570 0.831469 0.000000
vn 0.555571 0.831469 -0.000000
vn 0.195092 0.980785 -0.000000
vn 0.195091 0.980785 0.000000
vn -0.195089 0.980785 -0.000000
vn -0.195090 0.980785 0.000000
vn -0.555570 0.831470 -0.000000
vn -0.831469 0.555571 -0.000000
vn -0.831470 0.555570 0.000000
vn -0.980785 0.195091 -0.000000
vn -0.980785 0.195090 0.000000
vn -0.980785 -0.195090 -0.000000
vn -0.831470 -0.555570 -0.000000
vn -0.555570 -0.831469 -0.000000
vn -0.555570 -0.831470 0.000000
vn -0.195091 -0.980785 -0.000000
vn -0.195090 -0.980785 0.000000
vn 0.195090 -0.980785 -0.000000
vn 0.195091 -0.980785 0.000000
vn 0.555570 -0.831470 -0.000000
vn 0.831469 -0.555570 0.000000
vn 0.831470 -0.555570 0.000000
vn 0.980785 -0.195091 -0.000000
vn 0.980785 0.195090 -0.000000
vn 0.980785 0.195091 0.000000
vn 0.831470 0.555570 -0.000000
vn -0.980786 -0.195089 0.000000
vn -0.980785 0.195092 -0.000000
vn -0.831469 0.555572 0.000000
vn -0.555569 0.831471 0.000000
vn -0.195089 0.980786 0.000000
vn 0.195093 0.980785 -0.000000
vn 0.555572 0.831468 0.000000
vn 0.831471 0.555568 0.000000
vn 0.980786 0.195088 0.000000
vn 0.980785 -0.195093 0.000000
vn 0.831468 -0.555573 0.000000
vn 0.555568 -0.831471 0.000000
vn 0.195087 -0.980786 0.000000
vn -0.195094 -0.980785 0.000000
vn -0.555572 -0.831469 0.000000
vn -0.000012 -0.000018 1.000000
vn -0.000004 -0.000022 1.000000
vn 0.000004 -0.000022 1.000000
vn 0.000012 -0.000018 1.000000
vn 0.000018 -0.000012 1.000000
vn 0.000022 -0.000004 1.000000
vn 0.000022 0.000004 1.000000
vn 0.000018 0.000012 1.000000
vn 0.000012 0.000018 1.000000
vn 0.000004 0.000022 1.000000
vn -0.000004 0.000022 1.000000
vn -0.000012 0.000018 1.000000
vn -0.000018 0.000012 1.000000
vn -0.000022 0.000004 1.000000
vn -0.000022 -0.000004 1.000000
vn -0.000018 -0.000012 1.000000
vn 0.375896 0.562567 0.736357
vn 0.375896 0.562567 0.736356
vn 0.555571 0.831469 -0.000001
vn 0.375862 0.562515 -0.736414
vn 0.375862 0.562514 -0.736414
vn 0.555572 0.831469 -0.000000
vn 0.195094 0.980785 -0.000000
vn 0.131986 0.663531 -0.736414
vn 0.131986 0.663532 -0.736413
vn 0.195093 0.980785 -0.000001
vn 0.195092 0.980785 0.000001
vn 0.131998 0.663593 0.736356
vn 0.131998 0.663593 0.736357
vn -0.195087 0.980786 -0.000000
vn -0.195088 0.980786 0.000000
vn -0.131983 0.663532 -0.736414
vn -0.131983 0.663533 -0.736414
vn -0.195088 0.980786 -0.000001
vn -0.195089 0.980786 0.000001
vn -0.131996 0.663593 0.736357
vn -0.555568 0.831471 -0.000000
vn -0.375859 0.562516 -0.736414
vn -0.375860 0.562516 -0.736413
vn -0.555569 0.831470 0.000001
vn -0.375895 0.562568 0.736357
vn -0.375894 0.562567 0.736357
vn -0.831468 0.555573 -0.000000
vn -0.831468 0.555572 0.000001
vn -0.562514 0.375862 -0.736414
vn -0.562515 0.375862 -0.736414
vn -0.831469 0.555572 -0.000001
vn -0.831469 0.555571 0.000002
vn -0.562567 0.375896 0.736356
vn -0.562566 0.375895 0.736357
vn -0.980785 0.195093 -0.000000
vn -0.663531 0.131986 -0.736414
vn -0.663532 0.131986 -0.736414
vn -0.980785 0.195092 -0.000001
vn -0.980785 0.195092 0.000001
vn -0.663593 0.131998 0.736356
vn -0.663592 0.131997 0.736357
vn -0.980786 -0.195088 -0.000000
vn -0.663532 -0.131983 -0.736414
vn -0.663532 -0.131984 -0.736414
vn -0.980786 -0.195089 -0.000003
vn -0.980785 -0.195090 0.000001
vn -0.663593 -0.131996 0.736357
vn -0.663593 -0.131997 0.736357
vn -0.831471 -0.555569 -0.000000
vn -0.831470 -0.555569 0.000000
vn -0.562516 -0.375860 -0.736414
vn -0.562516 -0.375860 -0.736413
vn -0.831470 -0.555569 -0.000002
vn -0.562567 -0.375895 0.736357
vn -0.555572 -0.831468 -0.000000
vn -0.555572 -0.831469 0.000001
vn -0.375861 -0.562514 -0.736414
vn -0.375862 -0.562515 -0.736414
vn -0.555571 -0.831469 -0.000001
vn -0.555571 -0.831469 0.000000
vn -0.375896 -0.562567 0.736357
vn -0.375895 -0.562566 0.736357
vn -0.195092 -0.980785 -0.000000
vn -0.195092 -0.980785 0.000001
vn -0.131986 -0.663531 -0.736414
vn -0.131986 -0.663532 -0.736414
vn -0.195092 -0.980785 -0.000001
vn -0.195091 -0.980785 0.000001
vn -0.131997 -0.663593 0.736356
vn -0.131997 -0.663592 0.736357
vn 0.195088 -0.980786 -0.000001
vn 0.195089 -0.980785 0.000000
vn 0.131984 -0.663532 -0.736414
vn 0.195089 -0.980785 -0.000002
vn 0.195090 -0.980785 0.000001
vn 0.131997 -0.663593 0.736357
vn 0.555569 -0.831470 -0.000000
vn 0.375860 -0.562516 -0.736414
vn 0.375860 -0.562516 -0.736413
vn 0.555569 -0.831470 -0.000001
vn 0.375895 -0.562567 0.736357
vn 0.831469 -0.555571 -0.000000
vn 0.562515 -0.375861 -0.736414
vn 0.831469 -0.555571 -0.000001
vn 0.831469 -0.555571 0.000001
vn 0.562567 -0.375896 0.736357
vn 0.562567 -0.375895 0.736357
vn 0.980785 -0.195092 -0.000000
vn 0.663532 -0.131985 -0.736414
vn 0.980785 -0.195091 -0.000001
vn 0.663593 -0.131997 0.736357
vn 0.980786 0.195089 -0.000000
vn 0.980785 0.195089 0.000000
vn 0.663532 0.131984 -0.736414
vn 0.980785 0.195089 -0.000002
vn 0.980785 0.195090 0.000001
vn 0.663593 0.131997 0.736356
vn 0.663593 0.131997 0.736357
vn 0.831470 0.555569 -0.000000
vn 0.562515 0.375860 -0.736414
vn 0.562516 0.375861 -0.736414
vn 0.831470 0.555570 -0.000001
vn 0.562567 0.375895 0.736356
vn 0.562567 0.375895 0.736357
g Cube_Cube_None_QuartoPieces.png
usemtl None_QuartoPieces.png
s off
f 33/1/1 1/2/1 2/3/1
f 33/1/1 2/3/1 3/4/1
f 33/1/1 3/4/1 4/5/1
f 33/1/1 4/5/1 5/6/1
f 33/1/1 5/6/1 6/7/1
f 33/1/1 6/7/1 7/8/1
f 33/1/1 7/8/1 8/9/1
f 33/1/1 8/9/1 9/10/1
f 33/1/1 9/10/1 10/11/1
f 33/1/1 10/11/1 11/12/1
f 33/1/1 11/12/1 12/13/1
f 33/1/1 12/13/1 13/14/1
f 33/1/1 13/14/1 14/15/1
f 33/1/1 14/15/1 15/16/1
f 33/1/1 15/16/1 16/17/1
f 16/17/1 1/2/1 33/1/1
f 115/18/2 130/19/2 114/20/2
f 116/21/3 130/19/3 115/18/3
f 117/22/4 130/19/4 116/21/4
f 118/23/5 130/19/5 117/22/5
f 119/24/6 130/19/6 118/23/6
f 120/25/7 130/19/7 119/24/7
f 121/26/8 130/19/8 120/25/8
f 122/27/9 130/19/9 121/26/9
f 123/28/10 130/19/10 122/29/10
f 124/30/11 130/19/11 123/28/11
f 125/31/12 130/19/12 124/30/12
f 126/32/13 130/19/13 125/31/13
f 127/33/14 130/19/14 126/32/14
f 128/34/15 130/19/15 127/33/15
f 129/35/16 130/19/16 128/34/16
f 114/20/17 130/19/17 129/35/17
f 134/36/18 1/37/18 16/38/18
f 134/36/19 16/38/19 148/39/19
f 38/40/19 134/41/19 148/42/19
f 38/40/19 148/42/19 94/43/19
f 147/44/20 90/45/20 94/43/20
f 147/44/21 94/43/21 148/42/21
f 15/46/21 147/47/21 148/39/21
f 15/46/21 148/39/21 16/38/21
f 146/48/22 86/49/22 90/45/22
f 146/48/23 90/45/23 147/44/23
f 14/50/23 146/51/23 147/47/23
f 14/50/23 147/47/23 15/46/23
f 145/52/24 82/53/24 86/54/24
f 145/52/24 86/54/24 146/55/24
f 13/56/24 145/57/24 146/58/24
f 13/56/24 146/58/24 14/59/24
f 144/60/25 78/61/25 82/62/25
f 144/60/25 82/62/25 145/63/25
f 12/64/25 144/65/25 145/66/25
f 12/64/26 145/66/26 13/67/26
f 143/68/27 74/69/27 78/61/27
f 143/68/27 78/61/27 144/70/27
f 11/71/27 143/72/27 144/65/27
f 11/71/28 144/65/28 12/64/28
f 142/73/29 70/74/29 74/69/29
f 142/73/29 74/69/29 143/68/29
f 10/75/29 142/76/29 143/72/29
f 10/75/29 143/72/29 11/71/29
f 141/77/30 66/78/30 70/74/30
f 141/77/30 70/74/30 142/73/30
f 9/79/30 141/80/30 142/76/30
f 9/79/30 142/76/30 10/75/30
f 140/81/31 62/82/31 66/83/31
f 140/81/32 66/83/32 141/84/32
f 8/85/32 140/86/32 141/87/32
f 8/85/32 141/87/32 9/88/32
f 139/89/33 58/90/33 62/82/33
f 139/89/34 62/82/34 140/81/34
f 7/91/34 139/92/34 140/86/34
f 7/91/34 140/86/34 8/85/34
f 138/93/35 54/94/35 58/90/35
f 138/93/35 58/90/35 139/89/35
f 6/95/35 138/96/35 139/92/35
f 6/95/36 139/92/36 7/91/36
f 137/97/37 50/98/37 54/94/37
f 137/97/37 54/94/37 138/93/37
f 5/99/37 137/100/37 138/96/37
f 5/99/37 138/96/37 6/95/37
f 136/101/38 46/102/38 131/103/38
f 136/101/38 131/103/38 149/104/38
f 4/105/38 136/106/38 149/107/38
f 4/105/39 149/107/39 132/108/39
f 135/109/40 42/110/40 46/102/40
f 135/109/40 46/102/40 136/101/40
f 3/111/40 135/112/40 136/106/40
f 3/111/40 136/106/40 4/105/40
f 133/113/41 34/114/41 42/110/41
f 133/113/42 42/110/42 135/109/42
f 2/115/41 133/116/41 135/112/41
f 2/115/42 135/112/42 3/111/42
f 134/41/43 38/40/43 34/117/43
f 134/41/43 34/117/43 133/118/43
f 1/37/43 134/36/43 133/119/43
f 1/37/43 133/119/43 2/120/43
f 99/121/30 98/122/30 114/123/30
f 99/121/30 114/123/30 129/124/30
f 100/125/44 99/121/44 129/124/44
f 100/125/44 129/124/44 128/126/44
f 101/121/45 100/125/45 128/126/45
f 101/121/45 128/126/45 127/124/45
f 102/127/46 101/121/46 127/124/46
f 102/127/46 127/124/46 126/123/46
f 103/128/47 102/127/47 126/123/47
f 103/128/47 126/123/47 125/129/47
f 104/130/48 103/128/48 125/129/48
f 104/130/48 125/129/48 124/131/48
f 105/132/49 104/130/49 124/131/49
f 105/132/49 124/131/49 123/133/49
f 106/134/50 105/132/50 123/133/50
f 106/134/50 123/133/50 122/135/50
f 107/136/51 106/134/51 122/135/51
f 107/136/51 122/135/51 121/137/51
f 108/138/52 107/136/52 121/137/52
f 108/138/52 121/137/52 120/139/52
f 109/136/53 108/138/53 120/139/53
f 109/136/53 120/139/53 119/137/53
f 110/140/54 109/136/54 119/137/54
f 110/140/54 119/137/54 118/141/54
f 111/142/55 110/140/55 118/141/55
f 111/142/55 118/141/55 117/143/55
f 112/144/56 111/142/56 117/143/56
f 112/144/56 117/143/56 116/145/56
f 113/146/57 112/144/57 116/145/57
f 113/146/57 116/145/57 115/147/57
f 98/122/58 113/146/58 115/147/58
f 98/122/58 115/147/58 114/123/58
f 32/148/59 113/149/59 98/150/59
f 32/148/59 98/150/59 17/151/59
f 31/152/60 112/153/60 113/149/60
f 31/152/60 113/149/60 32/148/60
f 30/154/61 111/155/61 112/153/61
f 30/154/61 112/153/61 31/152/61
f 29/156/62 110/157/62 111/155/62
f 29/156/62 111/155/62 30/154/62
f 28/158/63 109/159/63 110/157/63
f 28/158/63 110/157/63 29/156/63
f 27/160/64 108/161/64 109/159/64
f 27/160/64 109/159/64 28/158/64
f 26/162/65 107/163/65 108/161/65
f 26/162/65 108/161/65 27/160/65
f 25/164/66 106/165/66 107/163/66
f 25/164/66 107/163/66 26/162/66
f 24/166/67 105/167/67 106/165/67
f 24/166/67 106/165/67 25/164/67
f 23/168/68 104/169/68 105/167/68
f 23/168/68 105/167/68 24/166/68
f 22/170/69 103/171/69 104/169/69
f 22/170/69 104/169/69 23/168/69
f 21/172/70 102/173/70 103/171/70
f 21/172/70 103/171/70 22/170/70
f 20/174/71 101/175/71 102/173/71
f 20/174/71 102/173/71 21/172/71
f 19/176/72 100/177/72 101/175/72
f 19/176/72 101/175/72 20/174/72
f 18/178/73 99/179/73 100/177/73
f 18/178/73 100/177/73 19/176/73
f 17/151/74 98/150/74 99/179/74
f 17/151/74 99/179/74 18/178/74
f 39/180/75 38/181/75 94/182/75
f 39/180/76 94/182/76 95/183/76
f 40/184/19 39/185/19 95/186/19
f 40/184/77 95/186/77 96/187/77
f 41/188/78 40/189/78 96/190/78
f 41/188/79 96/190/79 97/191/79
f 17/192/80 41/188/80 97/191/80
f 17/192/50 97/191/50 32/193/50
f 93/194/81 31/195/81 32/193/81
f 93/194/49 32/193/49 97/191/49
f 92/196/82 93/194/82 97/191/82
f 92/196/83 97/191/83 96/190/83
f 91/197/84 92/198/84 96/187/84
f 91/197/85 96/187/85 95/186/85
f 90/199/86 91/200/86 95/183/86
f 90/199/87 95/183/87 94/182/87
f 89/201/88 30/202/88 31/195/88
f 89/201/89 31/195/89 93/194/89
f 88/203/90 89/201/90 93/194/90
f 88/203/91 93/194/91 92/196/91
f 87/204/92 88/205/92 92/198/92
f 87/204/93 92/198/93 91/197/93
f 86/206/94 87/207/94 91/200/94
f 86/206/94 91/200/94 90/199/94
f 85/208/95 29/209/95 30/202/95
f 85/208/95 30/202/95 89/201/95
f 84/210/96 85/208/96 89/201/96
f 84/210/97 89/201/97 88/203/97
f 83/211/47 84/212/47 88/205/47
f 83/211/98 88/205/98 87/204/98
f 82/213/99 83/214/99 87/207/99
f 82/213/100 87/207/100 86/206/100
f 81/191/101 28/193/101 29/215/101
f 81/191/102 29/215/102 85/216/102
f 80/190/103 81/191/103 85/216/103
f 80/190/104 85/216/104 84/217/104
f 79/186/105 80/187/105 84/218/105
f 79/186/106 84/218/106 83/219/106
f 78/182/107 79/183/107 83/220/107
f 78/182/108 83/220/108 82/221/108
f 77/194/109 27/195/109 28/193/109
f 77/194/45 28/193/45 81/191/45
f 76/196/110 77/194/110 81/191/110
f 76/196/111 81/191/111 80/190/111
f 75/197/112 76/198/112 80/187/112
f 75/197/113 80/187/113 79/186/113
f 74/199/114 75/200/114 79/183/114
f 74/199/115 79/183/115 78/182/115
f 73/201/116 26/202/116 27/195/116
f 73/201/116 27/195/116 77/194/116
f 72/203/117 73/201/117 77/194/117
f 72/203/118 77/194/118 76/196/118
f 71/204/119 72/205/119 76/198/119
f 71/204/120 76/198/120 75/197/120
f 70/206/121 71/207/121 75/200/121
f 70/206/122 75/200/122 74/199/122
f 69/222/123 25/223/123 26/202/123
f 69/222/124 26/202/124 73/201/124
f 68/224/125 69/222/125 73/201/125
f 68/224/126 73/201/126 72/203/126
f 67/225/127 68/226/127 72/205/127
f 67/225/30 72/205/30 71/204/30
f 66/213/128 67/214/128 71/207/128
f 66/213/128 71/207/128 70/206/128
f 65/227/129 24/228/129 25/223/129
f 65/227/130 25/223/130 69/222/130
f 64/229/131 65/227/131 69/222/131
f 64/229/132 69/222/132 68/224/132
f 63/204/133 64/230/133 68/226/133
f 63/204/134 68/226/134 67/225/134
f 62/206/135 63/231/135 67/214/135
f 62/206/136 67/214/136 66/232/136
f 61/194/137 23/195/137 24/228/137
f 61/194/138 24/228/138 65/227/138
f 60/196/139 61/194/139 65/227/139
f 60/196/140 65/227/140 64/229/140
f 59/197/141 60/198/141 64/230/141
f 59/197/142 64/230/142 63/204/142
f 58/199/143 59/200/143 63/231/143
f 58/199/144 63/231/144 62/206/144
f 57/191/145 22/193/145 23/195/145
f 57/191/146 23/195/146 61/194/146
f 56/190/147 57/191/147 61/194/147
f 56/190/147 61/194/147 60/196/147
f 55/186/148 56/187/148 60/198/148
f 55/186/149 60/198/149 59/197/149
f 54/182/150 55/183/150 59/200/150
f 54/182/150 59/200/150 58/199/150
f 53/188/151 21/192/151 22/193/151
f 53/188/151 22/193/151 57/191/151
f 52/189/152 53/188/152 57/191/152
f 52/189/153 57/191/153 56/190/153
f 51/185/154 52/184/154 56/187/154
f 51/185/37 56/187/37 55/186/37
f 50/181/155 51/180/155 55/183/155
f 50/181/155 55/183/155 54/182/155
f 49/227/156 20/228/156 21/223/156
f 49/227/156 21/223/156 53/222/156
f 48/229/157 49/227/157 53/222/157
f 48/229/157 53/222/157 52/224/157
f 47/204/158 48/230/158 52/226/158
f 47/204/159 52/226/159 51/225/159
f 46/206/160 47/231/160 51/214/160
f 46/206/161 51/214/161 131/232/161
f 45/194/162 19/195/162 20/228/162
f 45/194/40 20/228/40 49/227/40
f 44/196/163 45/194/163 49/227/163
f 44/196/163 49/227/163 48/229/163
f 43/197/164 44/198/164 48/230/164
f 43/197/40 48/230/40 47/204/40
f 42/199/165 43/200/165 47/231/165
f 42/199/165 47/231/165 46/206/165
f 37/191/166 18/193/166 19/195/166
f 37/191/167 19/195/167 45/194/167
f 36/190/168 37/191/168 45/194/168
f 36/190/168 45/194/168 44/196/168
f 35/186/169 36/187/169 44/198/169
f 35/186/170 44/198/170 43/197/170
f 34/182/171 35/183/171 43/200/171
f 34/182/172 43/200/172 42/199/172
f 41/188/173 17/192/173 18/193/173
f 41/188/43 18/193/43 37/191/43
f 40/189/174 41/188/174 37/191/174
f 40/189/175 37/191/175 36/190/175
f 39/185/43 40/184/43 36/187/43
f 39/185/176 36/187/176 35/186/176
f 38/181/177 39/180/177 35/183/177
f 38/181/178 35/183/178 34/182/178
